<svg width="464" height="22" viewBox="0 0 464 22" fill="none" xmlns="http://www.w3.org/2000/svg">
<path d="M464 14.3532L453.43 9.70583L454.69 21.1838L464 14.3532ZM1 14.3532L1.20771 15.3314C2.38243 15.0819 3.55208 14.8366 4.71673 14.5953L4.51385 13.6161L4.31097 12.6369C3.14308 12.8788 1.97021 13.1249 0.792286 13.375L1 14.3532ZM11.4521 12.2145L11.6452 13.1957C13.9368 12.7447 16.2089 12.3097 18.4621 11.89L18.279 10.9069L18.0959 9.92383C15.836 10.3447 13.5572 10.7811 11.2591 11.2333L11.4521 12.2145ZM25.3025 9.63784L25.4749 10.6229C27.7923 10.2171 30.0897 9.82782 32.3677 9.45459L32.206 8.46775L32.0443 7.48091C29.7591 7.85532 27.4545 8.24582 25.13 8.65283L25.3025 9.63784ZM39.1887 7.36427L39.3391 8.35289C41.679 7.99683 43.9985 7.65781 46.2983 7.33531L46.1594 6.345L46.0206 5.35469C43.713 5.67827 41.3858 6.01843 39.0383 6.37565L39.1887 7.36427ZM53.1203 5.41119L53.2473 6.4031C55.6042 6.10133 57.9406 5.81698 60.2573 5.54948L60.1426 4.55608L60.0279 3.56268C57.703 3.83113 55.3584 4.11648 52.9933 4.41929L53.1203 5.41119ZM67.1002 3.7967L67.2024 4.79146C69.5709 4.54803 71.9189 4.32219 74.2476 4.1133L74.1582 3.1173L74.0689 2.1213C71.7316 2.33096 69.375 2.55763 66.9979 2.80194L67.1002 3.7967ZM81.1254 2.53783L81.2018 3.53491C83.5762 3.353 85.9307 3.18862 88.2665 3.04106L88.2035 2.04305L88.1404 1.04504C85.7958 1.19316 83.4323 1.35816 81.049 1.54075L81.1254 2.53783ZM95.1876 1.64844L95.2373 2.6472C97.6126 2.52887 99.969 2.42773 102.308 2.343L102.271 1.34366L102.235 0.344313C99.8876 0.429368 97.5222 0.530895 95.1378 0.649678L95.1876 1.64844ZM109.275 1.13693L109.297 2.13667C111.669 2.08255 114.024 2.04499 116.362 2.02312L116.352 1.02317L116.343 0.0232118C113.996 0.0451573 111.633 0.0828654 109.252 0.137192L109.275 1.13693ZM123.372 1.00395L123.369 2.00394C125.734 2.01303 128.084 2.03773 130.419 2.07712L130.436 1.07726L130.453 0.0773994C128.109 0.0378678 125.75 0.01308 123.376 0.0039593L123.372 1.00395ZM137.468 1.24049L137.438 2.24006C139.795 2.30958 142.138 2.39346 144.47 2.49072L144.512 1.49159L144.553 0.492463C142.214 0.394868 139.862 0.310695 137.497 0.240928L137.468 1.24049ZM151.549 1.82664L151.496 2.82522C153.844 2.95062 156.181 3.08884 158.509 3.23886L158.573 2.24093L158.637 1.243C156.302 1.09253 153.958 0.953869 151.602 0.828067L151.549 1.82664ZM165.609 2.73124L165.535 3.72845C167.875 3.9035 170.208 4.08959 172.534 4.28566L172.618 3.28919L172.702 2.29273C170.37 2.09616 168.031 1.90956 165.684 1.73402L165.609 2.73124ZM179.646 3.91249L179.554 4.9082C181.891 5.12539 184.224 5.35165 186.553 5.58589L186.653 4.59091L186.753 3.59593C184.419 3.36122 182.082 3.13447 179.739 2.91678L179.646 3.91249ZM193.662 5.31956L193.556 6.31387C195.888 6.56387 198.219 6.82078 200.55 7.08351L200.662 6.0898L200.774 5.09609C198.44 4.833 196.105 4.57568 193.769 4.32526L193.662 5.31956ZM207.663 6.89492L207.547 7.88814C209.874 8.16064 212.202 8.43781 214.534 8.71854L214.654 7.72571L214.774 6.73288C212.44 6.45193 210.109 6.1745 207.78 5.90171L207.663 6.89492ZM221.656 8.57682L221.535 9.5694C223.856 9.85381 226.182 10.1406 228.515 10.4288L228.637 9.43637L228.76 8.44391C226.427 8.1557 224.1 7.86878 221.778 7.58424L221.656 8.57682ZM235.634 10.301L235.512 11.2935C237.833 11.58 240.162 11.8669 242.501 12.1529L242.623 11.1603L242.744 10.1677C240.406 9.88177 238.078 9.59506 235.757 9.30855L235.634 10.301ZM249.614 12.0083L249.494 13.0011C251.819 13.2804 254.154 13.5579 256.501 13.8326L256.618 12.8394L256.734 11.8462C254.389 11.5717 252.056 11.2945 249.733 11.0154L249.614 12.0083ZM263.602 13.6434L263.49 14.6371C265.82 14.9005 268.163 15.1603 270.521 15.4156L270.628 14.4214L270.736 13.4272C268.382 13.1723 266.042 12.9129 263.715 12.6498L263.602 13.6434ZM277.606 15.158L277.504 16.1528C279.84 16.3928 282.192 16.6277 284.56 16.8563L284.656 15.861L284.752 14.8656C282.389 14.6373 280.041 14.4029 277.709 14.1632L277.606 15.158ZM291.628 16.5111L291.539 17.5071C293.877 17.7172 296.231 17.9207 298.604 18.1167L298.687 17.1201L298.769 16.1235C296.401 15.9279 294.051 15.7248 291.718 15.5152L291.628 16.5111ZM305.668 17.6703L305.593 18.6675C307.934 18.843 310.293 19.0108 312.671 19.1699L312.738 18.1722L312.805 17.1744C310.432 17.0156 308.078 16.8482 305.742 16.6731L305.668 17.6703ZM319.723 18.611L319.664 19.6093C322.01 19.747 324.376 19.876 326.761 19.9955L326.811 18.9967L326.861 17.998C324.482 17.8788 322.122 17.7501 319.781 17.6127L319.723 18.611ZM333.792 19.3165L333.75 20.3156C336.099 20.4131 338.469 20.5011 340.859 20.579L340.891 19.5796L340.924 18.5801C338.54 18.5024 336.176 18.4146 333.833 18.3174L333.792 19.3165ZM347.872 19.7764L347.848 20.7762C350.193 20.832 352.558 20.8778 354.944 20.9132L354.958 19.9133L354.973 18.9134C352.593 18.8781 350.235 18.8324 347.896 18.7767L347.872 19.7764ZM361.965 19.986L361.959 20.986C364.295 20.9999 366.651 21.0036 369.027 20.9965L369.024 19.9965L369.021 18.9965C366.651 19.0035 364.301 18.9999 361.971 18.986L361.965 19.986ZM376.073 19.9444L376.085 20.9444C378.407 20.917 380.75 20.8792 383.113 20.8307L383.092 19.8309L383.072 18.8311C380.714 18.8795 378.378 18.9172 376.062 18.9445L376.073 19.9444ZM390.204 19.6538L390.234 20.6534C392.538 20.5859 394.862 20.5082 397.206 20.4198L397.169 19.4205L397.131 18.4212C394.792 18.5094 392.474 18.5869 390.175 18.6542L390.204 19.6538ZM404.254 19.1232L404.3 20.1221C406.62 20.0149 408.96 19.8973 411.32 19.7688L411.266 18.7703L411.211 17.7718C408.857 17.8999 406.522 18.0173 404.207 18.1242L404.254 19.1232ZM418.28 18.36L418.342 19.358C420.698 19.2107 423.074 19.0525 425.47 18.8833L425.4 17.8858L425.329 16.8883C422.938 17.0571 420.568 17.2149 418.217 17.3619L418.28 18.36ZM432.33 17.3695L432.408 18.3665C434.74 18.1838 437.091 17.9907 439.461 17.7868L439.375 16.7905L439.289 15.7942C436.924 15.9977 434.579 16.1904 432.252 16.3726L432.33 17.3695ZM446.427 16.1573L446.52 17.153C448.819 16.9379 451.137 16.7127 453.473 16.4772L453.372 15.4823L453.272 14.4873C450.941 14.7223 448.628 14.947 446.334 15.1617L446.427 16.1573ZM464 14.3532L453.43 9.70583L454.69 21.1838L464 14.3532ZM1 14.3532L1.20771 15.3314C2.38243 15.0819 3.55208 14.8366 4.71673 14.5953L4.51385 13.6161L4.31097 12.6369C3.14308 12.8788 1.97021 13.1249 0.792286 13.375L1 14.3532ZM11.4521 12.2145L11.6452 13.1957C13.9368 12.7447 16.2089 12.3097 18.4621 11.89L18.279 10.9069L18.0959 9.92383C15.836 10.3447 13.5572 10.7811 11.2591 11.2333L11.4521 12.2145ZM25.3025 9.63784L25.4749 10.6229C27.7923 10.2171 30.0897 9.82782 32.3677 9.45459L32.206 8.46775L32.0443 7.48091C29.7591 7.85532 27.4545 8.24582 25.13 8.65283L25.3025 9.63784ZM39.1887 7.36427L39.3391 8.35289C41.679 7.99683 43.9985 7.65781 46.2983 7.33531L46.1594 6.345L46.0206 5.35469C43.713 5.67827 41.3858 6.01843 39.0383 6.37565L39.1887 7.36427ZM53.1203 5.41119L53.2473 6.4031C55.6042 6.10133 57.9406 5.81698 60.2573 5.54948L60.1426 4.55608L60.0279 3.56268C57.703 3.83113 55.3584 4.11648 52.9933 4.41929L53.1203 5.41119ZM67.1002 3.7967L67.2024 4.79146C69.5709 4.54803 71.9189 4.32219 74.2476 4.1133L74.1582 3.1173L74.0689 2.1213C71.7316 2.33096 69.375 2.55763 66.9979 2.80194L67.1002 3.7967ZM81.1254 2.53783L81.2018 3.53491C83.5762 3.353 85.9307 3.18862 88.2665 3.04106L88.2035 2.04305L88.1404 1.04504C85.7958 1.19316 83.4323 1.35816 81.049 1.54075L81.1254 2.53783ZM95.1876 1.64844L95.2373 2.6472C97.6126 2.52887 99.969 2.42773 102.308 2.343L102.271 1.34366L102.235 0.344313C99.8876 0.429368 97.5222 0.530895 95.1378 0.649678L95.1876 1.64844ZM109.275 1.13693L109.297 2.13667C111.669 2.08255 114.024 2.04499 116.362 2.02312L116.352 1.02317L116.343 0.0232118C113.996 0.0451573 111.633 0.0828654 109.252 0.137192L109.275 1.13693ZM123.372 1.00395L123.369 2.00394C125.734 2.01303 128.084 2.03773 130.419 2.07712L130.436 1.07726L130.453 0.0773994C128.109 0.0378678 125.75 0.01308 123.376 0.0039593L123.372 1.00395ZM137.468 1.24049L137.438 2.24006C139.795 2.30958 142.138 2.39346 144.47 2.49072L144.512 1.49159L144.553 0.492463C142.214 0.394868 139.862 0.310695 137.497 0.240928L137.468 1.24049ZM151.549 1.82664L151.496 2.82522C153.844 2.95062 156.181 3.08884 158.509 3.23886L158.573 2.24093L158.637 1.243C156.302 1.09253 153.958 0.953869 151.602 0.828067L151.549 1.82664ZM165.609 2.73124L165.535 3.72845C167.875 3.9035 170.208 4.08959 172.534 4.28566L172.618 3.28919L172.702 2.29273C170.37 2.09616 168.031 1.90956 165.684 1.73402L165.609 2.73124ZM179.646 3.91249L179.554 4.9082C181.891 5.12539 184.224 5.35165 186.553 5.58589L186.653 4.59091L186.753 3.59593C184.419 3.36122 182.082 3.13447 179.739 2.91678L179.646 3.91249ZM193.662 5.31956L193.556 6.31387C195.888 6.56387 198.219 6.82078 200.55 7.08351L200.662 6.0898L200.774 5.09609C198.44 4.833 196.105 4.57568 193.769 4.32526L193.662 5.31956ZM207.663 6.89492L207.547 7.88814C209.874 8.16064 212.202 8.43781 214.534 8.71854L214.654 7.72571L214.774 6.73288C212.44 6.45193 210.109 6.1745 207.78 5.90171L207.663 6.89492ZM221.656 8.57682L221.535 9.5694C223.856 9.85381 226.182 10.1406 228.515 10.4288L228.637 9.43637L228.76 8.44391C226.427 8.1557 224.1 7.86878 221.778 7.58424L221.656 8.57682ZM235.634 10.301L235.512 11.2935C237.833 11.58 240.162 11.8669 242.501 12.1529L242.623 11.1603L242.744 10.1677C240.406 9.88177 238.078 9.59506 235.757 9.30855L235.634 10.301ZM249.614 12.0083L249.494 13.0011C251.819 13.2804 254.154 13.5579 256.501 13.8326L256.618 12.8394L256.734 11.8462C254.389 11.5717 252.056 11.2945 249.733 11.0154L249.614 12.0083ZM263.602 13.6434L263.49 14.6371C265.82 14.9005 268.163 15.1603 270.521 15.4156L270.628 14.4214L270.736 13.4272C268.382 13.1723 266.042 12.9129 263.715 12.6498L263.602 13.6434ZM277.606 15.158L277.504 16.1528C279.84 16.3928 282.192 16.6277 284.56 16.8563L284.656 15.861L284.752 14.8656C282.389 14.6373 280.041 14.4029 277.709 14.1632L277.606 15.158ZM291.628 16.5111L291.539 17.5071C293.877 17.7172 296.231 17.9207 298.604 18.1167L298.687 17.1201L298.769 16.1235C296.401 15.9279 294.051 15.7248 291.718 15.5152L291.628 16.5111ZM305.668 17.6703L305.593 18.6675C307.934 18.843 310.293 19.0108 312.671 19.1699L312.738 18.1722L312.805 17.1744C310.432 17.0156 308.078 16.8482 305.742 16.6731L305.668 17.6703ZM319.723 18.611L319.664 19.6093C322.01 19.747 324.376 19.876 326.761 19.9955L326.811 18.9967L326.861 17.998C324.482 17.8788 322.122 17.7501 319.781 17.6127L319.723 18.611ZM333.792 19.3165L333.75 20.3156C336.099 20.4131 338.469 20.5011 340.859 20.579L340.891 19.5796L340.924 18.5801C338.54 18.5024 336.176 18.4146 333.833 18.3174L333.792 19.3165ZM347.872 19.7764L347.848 20.7762C350.193 20.832 352.558 20.8778 354.944 20.9132L354.958 19.9133L354.973 18.9134C352.593 18.8781 350.235 18.8324 347.896 18.7767L347.872 19.7764ZM361.965 19.986L361.959 20.986C364.295 20.9999 366.651 21.0036 369.027 20.9965L369.024 19.9965L369.021 18.9965C366.651 19.0035 364.301 18.9999 361.971 18.986L361.965 19.986ZM376.073 19.9444L376.085 20.9444C378.407 20.917 380.75 20.8792 383.113 20.8307L383.092 19.8309L383.072 18.8311C380.714 18.8795 378.378 18.9172 376.062 18.9445L376.073 19.9444ZM390.204 19.6538L390.234 20.6534C392.538 20.5859 394.862 20.5082 397.206 20.4198L397.169 19.4205L397.131 18.4212C394.792 18.5094 392.474 18.5869 390.175 18.6542L390.204 19.6538ZM404.254 19.1232L404.3 20.1221C406.62 20.0149 408.96 19.8973 411.32 19.7688L411.266 18.7703L411.211 17.7718C408.857 17.8999 406.522 18.0173 404.207 18.1242L404.254 19.1232ZM418.28 18.36L418.342 19.358C420.698 19.2107 423.074 19.0525 425.47 18.8833L425.4 17.8858L425.329 16.8883C422.938 17.0571 420.568 17.2149 418.217 17.3619L418.28 18.36ZM432.33 17.3695L432.408 18.3665C434.74 18.1838 437.091 17.9907 439.461 17.7868L439.375 16.7905L439.289 15.7942C436.924 15.9977 434.579 16.1904 432.252 16.3726L432.33 17.3695ZM446.427 16.1573L446.52 17.153C448.819 16.9379 451.137 16.7127 453.473 16.4772L453.372 15.4823L453.272 14.4873C450.941 14.7223 448.628 14.947 446.334 15.1617L446.427 16.1573Z" fill="#6E44D9"/>
</svg>
