<svg width="100" height="100" viewBox="0 0 100 100" fill="none" xmlns="http://www.w3.org/2000/svg">
<circle cx="50" cy="50" r="50" fill="url(#paint0_radial_3040_1908)"/>
<path d="M64.9999 55.2738C65.5522 55.2738 66 54.8337 66 54.291C66 53.7482 65.5522 53.3082 64.9999 53.3082C64.4476 53.3082 63.9999 53.7482 63.9999 54.291C63.9999 54.8337 64.4476 55.2738 64.9999 55.2738Z" fill="white"/>
<path d="M64.9999 49.3791C62.2419 49.3791 60 51.5825 60 54.2929C60 57.0014 62.242 59.2067 64.9999 59.2067H73.9999V49.3791H64.9999ZM64.9999 57.2412C63.3459 57.2412 61.9999 55.9184 61.9999 54.2929C61.9999 52.6674 63.3459 51.3446 64.9999 51.3446C66.654 51.3446 67.9999 52.6674 67.9999 54.2929C67.9999 55.9184 66.654 57.2412 64.9999 57.2412Z" fill="white"/>
<path d="M64.9999 47.4134H73.9999V44.4651C73.9999 40.6717 70.8599 37.5857 66.9999 37.5857H33C29.14 37.5858 26 40.6717 26 44.4651V64.1206C26 67.914 29.14 71 33 71H67C70.8599 71 74 67.9141 74 64.1206V61.1722H65C61.1401 61.1722 58 58.0864 58 54.2928C58 50.4992 61.14 47.4134 64.9999 47.4134Z" fill="white"/>
<path d="M66.0799 32.1274L67.902 35.7086C69.8039 35.8973 71.5199 36.656 72.8879 37.8274C71.5439 35.0974 69.0879 32.9903 66.0799 32.1274Z" fill="white"/>
<path d="M36.9999 31.6891C32.63 31.6891 28.856 34.2148 27.0839 37.8531C28.4479 36.6718 30.166 35.9072 32.0699 35.7126L39.6739 31.6891H36.9999Z" fill="white"/>
<path d="M58.5139 26.3232C56.694 25.7591 54.7659 25.938 53.082 26.8244L36.462 35.6203H50.402L62.178 29.0514C61.2999 27.7658 60.042 26.7988 58.5139 26.3232Z" fill="white"/>
<path d="M63.1519 30.7693L54.456 35.6202H65.6179L63.1519 30.7693Z" fill="white"/>
<defs>
<radialGradient id="paint0_radial_3040_1908" cx="0" cy="0" r="1" gradientUnits="userSpaceOnUse" gradientTransform="translate(75.6172 21.8673) rotate(86.66) scale(74.3467)">
<stop stop-color="#CF06F2"/>
<stop offset="0.05" stop-color="#C705EF"/>
<stop offset="0.5" stop-color="#8D02DC"/>
<stop offset="0.83" stop-color="#6900D0"/>
<stop offset="1" stop-color="#5C00CC"/>
</radialGradient>
</defs>
</svg>
