<svg width="100" height="100" viewBox="0 0 100 100" fill="none" xmlns="http://www.w3.org/2000/svg">
<circle cx="50" cy="50" r="50" fill="url(#paint0_radial_3040_1988)"/>
<path d="M49.9909 64.4286H33.6002C33.37 64.4286 33.1492 64.3383 32.9863 64.1775C32.8235 64.0168 32.7321 63.7988 32.7321 63.5714C32.7321 63.3441 32.8235 63.1261 32.9863 62.9653C33.1492 62.8046 33.37 62.7143 33.6002 62.7143H48.7668C47.8241 61.1434 47.2404 59.3882 47.0565 57.5714H33.6002C33.37 57.5714 33.1492 57.4811 32.9863 57.3204C32.8235 57.1596 32.7321 56.9416 32.7321 56.7143C32.7321 56.487 32.8235 56.2689 32.9863 56.1082C33.1492 55.9474 33.37 55.8571 33.6002 55.8571H46.9871C47.0333 54.0762 47.4561 52.3244 48.2285 50.7143H33.6002C33.37 50.7143 33.1492 50.624 32.9863 50.4632C32.8235 50.3025 32.7321 50.0845 32.7321 49.8571C32.7321 49.6298 32.8235 49.4118 32.9863 49.251C33.1492 49.0903 33.37 49 33.6002 49H49.2269C50.4192 47.2623 52.0247 45.8396 53.9029 44.8563C55.7811 43.8731 57.8748 43.3594 60.0007 43.36C61.4399 43.3591 62.869 43.5967 64.2285 44.0629V36.6314H57.648C56.2673 36.6289 54.9439 36.0863 53.9676 35.1223C52.9912 34.1584 52.4416 32.8518 52.4391 31.4886V25H34.8938C33.3308 25.0015 31.8323 25.6151 30.7272 26.7062C29.622 27.7974 29.0005 29.2769 28.999 30.82V67.18C29.0005 68.7231 29.622 70.2026 30.7272 71.2937C31.8323 72.3849 33.3308 72.9985 34.8938 73H58.3338C59.6777 72.9982 60.9807 72.5435 62.0273 71.7112C63.0739 70.8789 63.8015 69.7189 64.0896 68.4229C61.6055 69.2356 58.9307 69.2891 56.4152 68.5764C53.8997 67.8638 51.6606 66.4181 49.9909 64.4286ZM33.6002 35.2857H46.6225C46.8527 35.2857 47.0735 35.376 47.2363 35.5368C47.3991 35.6975 47.4906 35.9155 47.4906 36.1429C47.4906 36.3702 47.3991 36.5882 47.2363 36.7489C47.0735 36.9097 46.8527 37 46.6225 37H33.6002C33.37 37 33.1492 36.9097 32.9863 36.7489C32.8235 36.5882 32.7321 36.3702 32.7321 36.1429C32.7321 35.9155 32.8235 35.6975 32.9863 35.5368C33.1492 35.376 33.37 35.2857 33.6002 35.2857ZM33.6002 42.1429H50.0864C50.3166 42.1429 50.5375 42.2332 50.7003 42.3939C50.8631 42.5547 50.9545 42.7727 50.9545 43C50.9545 43.2273 50.8631 43.4453 50.7003 43.6061C50.5375 43.7668 50.3166 43.8571 50.0864 43.8571H33.6002C33.37 43.8571 33.1492 43.7668 32.9863 43.6061C32.8235 43.4453 32.7321 43.2273 32.7321 43C32.7321 42.7727 32.8235 42.5547 32.9863 42.3939C33.1492 42.2332 33.37 42.1429 33.6002 42.1429Z" fill="white"/>
<path d="M57.648 34.9171H63.7164L54.1754 25.4971V31.4886C54.1766 32.3975 54.5429 33.2689 55.1939 33.9116C55.8448 34.5543 56.7274 34.9159 57.648 34.9171Z" fill="white"/>
<path d="M48.7104 56.2171C48.7104 58.4209 49.3723 60.5753 50.6124 62.4077C51.8526 64.2401 53.6152 65.6684 55.6774 66.5117C57.7397 67.3551 60.0089 67.5758 62.1981 67.1458C64.3874 66.7159 66.3984 65.6546 67.9767 64.0963C69.5551 62.5379 70.63 60.5524 71.0655 58.3909C71.5009 56.2294 71.2774 53.989 70.4232 51.9529C69.569 49.9168 68.1225 48.1765 66.2665 46.9521C64.4105 45.7277 62.2285 45.0742 59.9964 45.0742C57.0042 45.0776 54.1355 46.2526 52.0197 48.3416C49.9039 50.4305 48.7138 53.2628 48.7104 56.2171ZM69.546 56.2171C69.546 58.0819 68.9859 59.9048 67.9366 61.4553C66.8873 63.0058 65.3958 64.2143 63.6509 64.9279C61.9059 65.6416 59.9858 65.8283 58.1333 65.4645C56.2809 65.1007 54.5793 64.2027 53.2437 62.8841C51.9082 61.5655 50.9987 59.8855 50.6302 58.0565C50.2617 56.2275 50.4509 54.3318 51.1736 52.6089C51.8964 50.8861 53.1204 49.4135 54.6909 48.3775C56.2613 47.3415 58.1076 46.7885 59.9964 46.7885C62.5282 46.7913 64.9555 47.7856 66.7458 49.5532C68.5361 51.3208 69.5432 53.7173 69.546 56.2171Z" fill="white"/>
<path d="M76.235 68.62L70.8612 63.3143C69.8915 64.7532 68.6399 65.986 67.1802 66.94L72.5628 72.2543C72.9297 72.6045 73.3924 72.8411 73.8938 72.9351C74.3952 73.029 74.9135 72.9762 75.3849 72.7831C75.8563 72.59 76.2602 72.2651 76.547 71.8483C76.8338 71.4315 76.9909 70.941 76.999 70.4371C77 70.0994 76.933 69.7648 76.8018 69.4528C76.6707 69.1409 76.478 68.8578 76.235 68.62Z" fill="white"/>
<path d="M51.8401 55.8314C51.7801 55.9514 51.7489 56.0834 51.7489 56.2171C51.7489 56.3509 51.7801 56.4829 51.8401 56.6029C52.6692 58.0133 53.859 59.1841 55.2904 59.9979C56.7218 60.8117 58.3446 61.24 59.9964 61.24C61.6481 61.24 63.2709 60.8117 64.7023 59.9979C66.1337 59.1841 67.3235 58.0133 68.1526 56.6029C68.2126 56.4829 68.2438 56.3509 68.2438 56.2171C68.2438 56.0834 68.2126 55.9514 68.1526 55.8314C67.3235 54.421 66.1337 53.2502 64.7023 52.4364C63.2709 51.6226 61.6481 51.1943 59.9964 51.1943C58.3446 51.1943 56.7218 51.6226 55.2904 52.4364C53.859 53.2502 52.6692 54.421 51.8401 55.8314ZM60.0007 52.9086C61.2577 52.8871 62.4998 53.179 63.6121 53.7574C64.7244 54.3357 65.671 55.1817 66.3643 56.2171C65.6544 57.2373 64.7037 58.0717 63.5943 58.6481C62.4848 59.2245 61.25 59.5257 59.9964 59.5257C58.7427 59.5257 57.5079 59.2245 56.3985 58.6481C55.2891 58.0717 54.3384 57.2373 53.6285 56.2171C54.3228 55.1808 55.2709 54.3343 56.3848 53.7559C57.4986 53.1776 58.7424 52.8861 60.0007 52.9086Z" fill="white"/>
<path d="M60.0007 58.36C61.1994 58.36 62.1711 57.4006 62.1711 56.2171C62.1711 55.0337 61.1994 54.0743 60.0007 54.0743C58.802 54.0743 57.8303 55.0337 57.8303 56.2171C57.8303 57.4006 58.802 58.36 60.0007 58.36Z" fill="white"/>
<defs>
<radialGradient id="paint0_radial_3040_1988" cx="0" cy="0" r="1" gradientUnits="userSpaceOnUse" gradientTransform="translate(75.6172 21.8673) rotate(86.66) scale(74.3467)">
<stop stop-color="#CF06F2"/>
<stop offset="0.05" stop-color="#C705EF"/>
<stop offset="0.5" stop-color="#8D02DC"/>
<stop offset="0.83" stop-color="#6900D0"/>
<stop offset="1" stop-color="#5C00CC"/>
</radialGradient>
</defs>
</svg>
