<svg width="34" height="34" viewBox="0 0 34 34" fill="none" xmlns="http://www.w3.org/2000/svg">
<path d="M11.3334 32.5833H8.50008C7.56988 32.5833 6.6488 32.4001 5.78941 32.0441C4.93002 31.6881 4.14916 31.1664 3.49141 30.5086C2.83366 29.8509 2.31191 29.07 1.95593 28.2106C1.59996 27.3512 1.41675 26.4302 1.41675 25.5V8.49996C1.41675 6.62134 2.16303 4.81967 3.49141 3.49129C4.81979 2.1629 6.62146 1.41663 8.50008 1.41663H19.8334C20.7636 1.41663 21.6847 1.59984 22.5441 1.95581C23.4035 2.31178 24.1843 2.83354 24.8421 3.49129C25.4998 4.14903 26.0216 4.9299 26.3776 5.78928C26.7335 6.64867 26.9167 7.56976 26.9167 8.49996V11.3333C26.9167 11.709 26.7675 12.0694 26.5018 12.335C26.2361 12.6007 25.8758 12.75 25.5001 12.75C25.1244 12.75 24.764 12.6007 24.4983 12.335C24.2327 12.0694 24.0834 11.709 24.0834 11.3333V8.49996C24.0834 7.37279 23.6356 6.29179 22.8386 5.49476C22.0416 4.69773 20.9606 4.24996 19.8334 4.24996H8.50008C7.37291 4.24996 6.29191 4.69773 5.49488 5.49476C4.69785 6.29179 4.25008 7.37279 4.25008 8.49996V25.5C4.25008 26.6271 4.69785 27.7081 5.49488 28.5052C6.29191 29.3022 7.37291 29.75 8.50008 29.75H11.3334C11.7091 29.75 12.0695 29.8992 12.3351 30.1649C12.6008 30.4306 12.7501 30.7909 12.7501 31.1666C12.7501 31.5423 12.6008 31.9027 12.3351 32.1684C12.0695 32.434 11.7091 32.5833 11.3334 32.5833Z" fill="white"/>
<path d="M17.0002 18.4166H8.50016C8.12444 18.4166 7.7641 18.2673 7.49843 18.0017C7.23275 17.736 7.0835 17.3756 7.0835 16.9999C7.0835 16.6242 7.23275 16.2639 7.49843 15.9982C7.7641 15.7325 8.12444 15.5833 8.50016 15.5833H17.0002C17.3759 15.5833 17.7362 15.7325 18.0019 15.9982C18.2676 16.2639 18.4168 16.6242 18.4168 16.9999C18.4168 17.3756 18.2676 17.736 18.0019 18.0017C17.7362 18.2673 17.3759 18.4166 17.0002 18.4166Z" fill="white"/>
<path d="M11.3335 24.0833H8.50016C8.12444 24.0833 7.7641 23.9341 7.49843 23.6684C7.23275 23.4027 7.0835 23.0424 7.0835 22.6667C7.0835 22.2909 7.23275 21.9306 7.49843 21.6649C7.7641 21.3993 8.12444 21.25 8.50016 21.25H11.3335C11.7092 21.25 12.0696 21.3993 12.3352 21.6649C12.6009 21.9306 12.7502 22.2909 12.7502 22.6667C12.7502 23.0424 12.6009 23.4027 12.3352 23.6684C12.0696 23.9341 11.7092 24.0833 11.3335 24.0833Z" fill="white"/>
<path d="M19.8335 12.75H8.50016C8.12444 12.75 7.7641 12.6007 7.49843 12.335C7.23275 12.0694 7.0835 11.709 7.0835 11.3333C7.0835 10.9576 7.23275 10.5972 7.49843 10.3316C7.7641 10.0659 8.12444 9.91663 8.50016 9.91663H19.8335C20.2092 9.91663 20.5696 10.0659 20.8352 10.3316C21.1009 10.5972 21.2502 10.9576 21.2502 11.3333C21.2502 11.709 21.1009 12.0694 20.8352 12.335C20.5696 12.6007 20.2092 12.75 19.8335 12.75Z" fill="white"/>
<path d="M17 32.5833C16.7974 32.585 16.5968 32.5432 16.4117 32.4608C16.2266 32.3784 16.0613 32.2572 15.9271 32.1055C15.7928 31.9538 15.6926 31.775 15.6333 31.5813C15.574 31.3875 15.557 31.1833 15.5833 30.9824L16.0508 27.3558C16.1612 26.4214 16.5858 25.5522 17.255 24.8908L25.3158 16.8299C26.1265 16.0607 27.2015 15.6318 28.3191 15.6318C29.4368 15.6318 30.5118 16.0607 31.3225 16.8299C32.1184 17.6268 32.5654 18.707 32.5654 19.8333C32.5654 20.9595 32.1184 22.0397 31.3225 22.8366L23.2617 30.8974C22.6002 31.5666 21.731 31.9912 20.7967 32.1016L17.1842 32.5833H17ZM28.3333 18.4166C28.1469 18.4155 27.9621 18.4513 27.7894 18.5218C27.6168 18.5923 27.4599 18.6961 27.3275 18.8274L19.2808 26.9166C19.0564 27.1373 18.9119 27.4264 18.87 27.7383L18.6433 29.5516L20.4567 29.3249C20.7583 29.2677 21.0352 29.1194 21.25 28.8999L29.3108 20.8391C29.4436 20.7074 29.549 20.5507 29.6209 20.3781C29.6928 20.2055 29.7299 20.0203 29.7299 19.8333C29.7299 19.6463 29.6928 19.4611 29.6209 19.2885C29.549 19.1158 29.4436 18.9591 29.3108 18.8274C29.0505 18.5691 28.7 18.4219 28.3333 18.4166Z" fill="white"/>
</svg>
