<svg width="61" height="61" viewBox="0 0 61 61" fill="none" xmlns="http://www.w3.org/2000/svg">
<path fill-rule="evenodd" clip-rule="evenodd" d="M43.209 25.4167V20.3333C43.209 13.3147 37.5192 7.625 30.5007 7.625C23.482 7.625 17.7923 13.3147 17.7923 20.3333V25.4167H15.2507C13.8469 25.4167 12.709 26.5546 12.709 27.9583V40.6667C12.709 47.6852 18.3987 53.375 25.4173 53.375H35.584C42.6025 53.375 48.2923 47.6852 48.2923 40.6667V27.9583C48.2923 26.5546 47.1544 25.4167 45.7506 25.4167H43.209ZM39.3965 25.4167H21.6048V20.3333C21.6048 15.4203 25.5876 11.4375 30.5007 11.4375C35.4137 11.4375 39.3965 15.4203 39.3965 20.3333V25.4167ZM16.5215 29.2292V40.6667C16.5215 45.5797 20.5043 49.5625 25.4173 49.5625H35.584C40.497 49.5625 44.4798 45.5797 44.4798 40.6667V29.2292H16.5215ZM34.336 36.862C34.336 38.2833 33.5593 39.5234 32.4069 40.1815V43.2083C32.4069 43.9101 31.8378 44.4792 31.1361 44.4792H29.8652C29.1635 44.4792 28.5944 43.9101 28.5944 43.2083V40.1682C27.4545 39.5069 26.6882 38.2739 26.6882 36.862C26.6882 34.7522 28.4002 33.0417 30.5121 33.0417C32.624 33.0417 34.336 34.7522 34.336 36.862Z" fill="#CF06F2"/>
</svg>
