<svg width="34" height="34" viewBox="0 0 34 34" fill="none" xmlns="http://www.w3.org/2000/svg">
<path d="M17.0065 18.9962H17.0664C20.2386 18.9962 23.2146 16.8859 24.6481 13.6198C24.9429 12.9481 24.6374 12.1647 23.9657 11.8699C23.2939 11.5749 22.5106 11.8806 22.2158 12.5522C21.2214 14.8177 19.152 16.3399 17.0664 16.3399H17.0065C14.0142 16.3399 11.2891 13.2855 11.2891 9.93176V5.33512L17.0365 2.75869L21.7374 4.86596L18.6337 9.20807C18.5219 9.33384 18.3843 9.36127 18.3101 9.36618C18.2326 9.37116 18.082 9.36133 17.95 9.23549C17.9436 9.22945 17.9373 9.22341 17.9307 9.2175L15.3803 6.88073C14.8394 6.3852 13.9993 6.42199 13.5038 6.96281C13.0083 7.50362 13.045 8.34372 13.5859 8.83925L16.1279 11.1682C16.7099 11.7178 17.4838 12.0234 18.28 12.0234C18.3487 12.0234 18.4176 12.021 18.4865 12.0165C19.3593 11.9583 20.174 11.5335 20.7217 10.8508C20.7371 10.8316 20.752 10.812 20.7664 10.792L26.4541 2.83479C26.8807 2.23807 26.7427 1.40852 26.1459 0.981993C25.5491 0.555466 24.7195 0.693392 24.2931 1.29018L23.313 2.66134L17.6442 0.120239C17.4734 0.0436064 17.2883 0.00402832 17.1009 0.00402832H16.9719C16.7846 0.00402832 16.5995 0.0436064 16.4286 0.120239L9.41767 3.26311C8.94014 3.47714 8.63281 3.95168 8.63281 4.47503V9.93183C8.63281 12.147 9.50579 14.4087 11.0278 16.1369C12.6518 17.9808 14.775 18.9962 17.0065 18.9962Z" fill="white"/>
<path d="M28.6875 4.78528C27.954 4.78528 27.3594 5.37988 27.3594 6.1134C27.3594 6.84693 27.954 7.44153 28.6875 7.44153C30.1522 7.44153 31.3438 8.63312 31.3438 10.0978V16.7384C31.3438 17.4719 31.9384 18.0665 32.6719 18.0665C33.4054 18.0665 34 17.4719 34 16.7384V10.0978C34 7.16847 31.6168 4.78528 28.6875 4.78528Z" fill="white"/>
<path d="M32.6719 22.0509C31.9384 22.0509 31.3438 22.6455 31.3438 23.379C31.3438 24.8437 30.1522 26.0353 28.6875 26.0353H5.3125C3.84784 26.0353 2.65625 24.8437 2.65625 23.379V10.0978C2.65625 8.72623 3.68336 7.58995 5.04528 7.45475C5.77522 7.3823 6.3082 6.73178 6.23575 6.00191C6.1633 5.27204 5.51245 4.73946 4.78284 4.81145C3.47736 4.94107 2.27036 5.54829 1.38411 6.52134C0.491539 7.5013 0 8.77145 0 10.0978V23.379C0 26.3083 2.38319 28.6915 5.3125 28.6915H15.6719V31.3397H11.0234C10.2899 31.3397 9.69531 31.9343 9.69531 32.6678C9.69531 33.4013 10.2899 33.9959 11.0234 33.9959H22.9766C23.7101 33.9959 24.3047 33.4013 24.3047 32.6678C24.3047 31.9343 23.7101 31.3397 22.9766 31.3397H18.3281V28.6915H28.6875C31.6168 28.6915 34 26.3083 34 23.379C34 22.6455 33.4054 22.0509 32.6719 22.0509Z" fill="white"/>
</svg>
