<svg width="24" height="24" viewBox="0 0 24 24" fill="none" xmlns="http://www.w3.org/2000/svg">
<path d="M8 1.5V3.5H16V1.5H16.5V3.5H18C19.3808 3.5 20.5 4.61929 20.5 6V15C20.5 15.4717 20.4404 15.9293 20.3291 16.3652C19.722 18.7426 17.5658 20.5 15 20.5H11.8906C11.8454 20.5019 11.7997 20.5029 11.7539 20.5029H11.2686L11.251 20.5H6C4.61929 20.5 3.5 19.3808 3.5 18V6C3.5 4.61929 4.61929 3.5 6 3.5H7.5V1.5H8ZM4 18C4 19.1045 4.89542 20 6 20H11.8896L11.9033 19.999C13.3529 19.9211 14.5039 18.7216 14.5039 17.2529V15.501H14.7539L19.5 15.5V15H20V9.01562H4V18ZM15.7539 16.001C15.3399 16.001 15.0039 16.3366 15.0039 16.751V17.2529C15.0039 17.984 14.7631 18.6575 14.3564 19.2002L13.7568 20H15C17.1773 20 19.0283 18.6086 19.7148 16.668L19.9512 16.001H15.7539ZM6 4C4.89543 4 4 4.89543 4 6V8.51562H20V6C20 4.89542 19.1045 4 18 4H16.5V6H16V4H8V6H7.5V4H6Z" fill="#6E44D9" stroke="#6E44D9"/>
</svg>
