<svg width="61" height="60" viewBox="0 0 61 60" fill="none" xmlns="http://www.w3.org/2000/svg">
<g clip-path="url(#clip0_4001_1774)">
<path d="M50.5392 31.7598C48.4266 31.7598 46.4669 32.4229 44.8534 33.549L42.3386 31.0343C44.612 29.2857 47.456 28.2442 50.5392 28.2442C53.447 28.2442 55.8126 25.8785 55.8126 22.9707V21.2129H52.297C51.3262 21.2129 50.5392 20.4259 50.5392 19.4551C50.5392 18.4843 51.3262 17.6973 52.297 17.6973H55.6712C54.9168 12.9642 51.1711 9.21563 46.4376 8.46153C45.3691 8.25727 43.4445 8.3359 42.3361 8.32231C41.3653 8.32231 40.5782 9.10934 40.5782 10.0801C40.5782 11.0509 41.3653 11.8379 42.3361 11.8379H44.6798V17.1114C44.6798 20.0191 42.3141 22.3848 39.4064 22.3848H33.9057C33.9041 22.3848 33.9023 22.385 33.9007 22.385C33.8991 22.385 33.8976 22.3849 33.8961 22.3849C29.697 22.3862 26.2812 25.8027 26.2812 30.0021V43.4787H35.3047C36.2755 43.4787 37.0625 42.6916 37.0625 41.7209C37.0625 38.6377 38.1039 35.7936 39.8526 33.5203L42.3673 36.035C41.2413 37.6485 40.5782 39.6081 40.5782 41.7207C40.5782 47.2132 45.0467 51.6817 50.5392 51.6817C56.0316 51.6817 60.5001 47.2132 60.5001 41.7207C60.5001 36.2283 56.0316 31.7598 50.5392 31.7598ZM50.5392 48.1661C46.9852 48.1661 44.0939 45.2747 44.0939 41.7207C44.0939 40.5812 44.3923 39.5107 44.9134 38.5808L49.2963 42.9638C49.9828 43.6502 51.0957 43.6502 51.7822 42.9638C52.4687 42.2773 52.4687 41.1643 51.7822 40.4779L47.3993 36.0949C48.329 35.5739 49.3996 35.2754 50.5392 35.2754C54.0931 35.2754 56.9845 38.1668 56.9845 41.7207C56.9845 45.2747 54.0931 48.1661 50.5392 48.1661Z" fill="white"/>
<path d="M10.4609 31.7598C4.96848 31.7598 0.5 36.2282 0.5 41.7207C0.5 47.2132 4.96848 51.6816 10.4609 51.6816C15.3534 51.6816 19.4304 48.1351 20.2634 43.4785H22.7656V35.5251L18.7135 36.1486C16.9211 33.5023 13.8908 31.7598 10.4609 31.7598ZM10.4609 48.166C6.90699 48.166 4.01562 45.2746 4.01562 41.7207C4.01562 38.1668 6.90699 35.2754 10.4609 35.2754C12.0338 35.2754 13.4763 35.8425 14.5964 36.782L11.3382 37.2832C9.14809 37.6201 7.53125 39.5047 7.53125 41.7207C7.53125 42.6915 8.31828 43.4785 9.28906 43.4785H16.6606C15.8933 46.1805 13.4055 48.166 10.4609 48.166Z" fill="white"/>
<path d="M37.1709 18.8693C36.1362 15.1836 31.9167 12.4238 26.8675 12.4238C23.0129 12.4238 19.647 14.0345 17.8086 16.436L34.0309 18.8693H37.1709Z" fill="white"/>
<path d="M10.2002 18.8497C9.63406 18.7647 9.14469 18.4094 8.88875 17.8974L8.14648 16.4128C7.46281 15.0453 6.06512 14.1816 4.53641 14.1816C2.30715 14.1816 0.5 15.9887 0.5 18.2178V20.6268C0.5 21.3341 0.923867 21.9724 1.57566 22.247L22.7656 31.169V30.002C22.7656 26.5145 24.378 23.3968 26.896 21.3541L10.2002 18.8497Z" fill="white"/>
</g>
<defs>
<clipPath id="clip0_4001_1774">
<rect width="60" height="60" fill="white" transform="translate(0.5)"/>
</clipPath>
</defs>
</svg>
