<svg width="61" height="36" viewBox="0 0 61 36" fill="none" xmlns="http://www.w3.org/2000/svg">
<path d="M44.0127 24.4795C40.8981 24.4795 38.3643 27.0133 38.3643 30.1279C38.6746 37.6214 49.352 37.6193 49.6611 30.1279C49.6611 27.0133 47.1272 24.4795 44.0127 24.4795Z" fill="white"/>
<path d="M53.4268 11.5498H8.23926C4.15539 11.5498 0.833008 14.8723 0.833008 18.9561V28.3701C0.833008 29.3409 1.62004 30.1279 2.59082 30.1279H6.60648C7.11133 17.9675 24.4343 17.9768 24.9346 30.1279H34.8487C35.3534 17.9675 52.6766 17.9768 53.1768 30.1279H59.0752C60.046 30.1279 60.833 29.3409 60.833 28.3701V20.8388C60.833 21.8096 60.046 22.5966 59.0752 22.5966H55.3095C52.9772 22.5037 52.979 19.173 55.3095 19.081H59.0752C60.046 19.081 60.833 19.868 60.833 20.8388V18.9561C60.833 14.8722 57.5105 11.5498 53.4268 11.5498Z" fill="white"/>
<path d="M42.6607 2.90852C41.8418 1.27035 40.1955 0.25293 38.3643 0.25293H28.8252V8.03406H45.2239C44.3223 6.23125 43.3383 4.26332 42.6607 2.90852Z" fill="white"/>
<path d="M25.3092 8.03406V0.25293H13.9381C10.8643 0.25293 8.2659 2.45371 7.75988 5.48652L7.3291 8.07227C7.62922 8.04742 7.9325 8.03406 8.23895 8.03406H25.3092Z" fill="white"/>
<path d="M15.7705 24.4795C12.6559 24.4795 10.1221 27.0133 10.1221 30.1279C10.4324 37.6214 21.1098 37.6193 21.4189 30.1279C21.4189 27.0133 18.885 24.4795 15.7705 24.4795Z" fill="white"/>
</svg>
