<svg width="61" height="60" viewBox="0 0 61 60" fill="none" xmlns="http://www.w3.org/2000/svg">
<g clip-path="url(#clip0_4001_1910)">
<path d="M8.61258 40H2.66602C2.66602 40.9946 3.0611 41.9484 3.76437 42.6516C4.46763 43.3549 5.42145 43.75 6.41602 43.75H7.07227C7.19501 42.3731 7.73203 41.0657 8.61258 40Z" fill="white"/>
<path d="M37.6663 40H19.2197C20.1002 41.0657 20.6371 42.3731 20.7598 43.75H37.6663C37.9979 43.75 38.3158 43.6183 38.5502 43.3839C38.7847 43.1494 38.9164 42.8315 38.9164 42.5V41.25C38.9164 40.9185 38.7847 40.6006 38.5502 40.3661C38.3158 40.1317 37.9979 40 37.6663 40Z" fill="white"/>
<path d="M13.916 48.7499C16.3322 48.7499 18.2909 46.7912 18.2909 44.375C18.2909 41.9587 16.3322 40 13.916 40C11.4998 40 9.54102 41.9587 9.54102 44.375C9.54102 46.7912 11.4998 48.7499 13.916 48.7499Z" fill="white"/>
<path d="M59.6057 32.2468L54.8028 21.6809C54.4046 20.8078 53.7641 20.0674 52.9573 19.5479C52.1505 19.0283 51.2115 18.7514 50.252 18.75H42.6661C42.3345 18.75 42.0166 18.8817 41.7821 19.1161C41.5477 19.3506 41.416 19.6685 41.416 20V39.6661C42.3222 38.701 43.488 38.0184 44.7732 37.7006C46.0583 37.3828 47.4079 37.4433 48.6595 37.8749C49.911 38.3065 51.0111 39.0906 51.8272 40.133C52.6434 41.1754 53.1407 42.4314 53.2595 43.75H56.416C57.4106 43.75 58.3644 43.3549 59.0677 42.6516C59.7709 41.9484 60.166 40.9945 60.166 40V34.833C60.166 33.9409 59.975 33.059 59.6057 32.2468ZM53.9066 31.2499H45.791C45.4595 31.2499 45.1416 31.1182 44.9072 30.8838C44.6728 30.6494 44.5411 30.3315 44.5411 30V25C44.5411 24.6684 44.6728 24.3505 44.9072 24.1161C45.1416 23.8816 45.4596 23.7499 45.7911 23.7499H50.8291C51.309 23.7499 51.7789 23.888 52.1824 24.1477C52.586 24.4075 52.9063 24.7779 53.105 25.2148L55.0449 29.4827C55.1315 29.6732 55.1689 29.8823 55.1537 30.0909C55.1384 30.2996 55.0711 30.501 54.9578 30.6769C54.8445 30.8528 54.6889 30.9974 54.5053 31.0975C54.3216 31.1977 54.1158 31.2501 53.9066 31.25V31.2499Z" fill="white"/>
<path d="M46.416 48.7499C48.8322 48.7499 50.7909 46.7912 50.7909 44.375C50.7909 41.9587 48.8322 40 46.416 40C43.9997 40 42.041 41.9587 42.041 44.375C42.041 46.7912 43.9997 48.7499 46.416 48.7499Z" fill="white"/>
<path d="M35.1665 11.25H6.41646C5.4219 11.25 4.46807 11.6451 3.76481 12.3483C3.06155 13.0516 2.66646 14.0054 2.66646 15V30H1.48287C0.860835 30 0.283687 30.4254 0.183609 31.04C0.153204 31.2194 0.162291 31.4033 0.210236 31.5788C0.258181 31.7543 0.34383 31.9172 0.461211 32.0562C0.578593 32.1952 0.724881 32.3069 0.889877 32.3836C1.05487 32.4603 1.2346 32.5 1.41654 32.5001H4.47513C5.09787 32.5001 5.6749 32.9255 5.77498 33.5401C5.80538 33.7195 5.79629 33.9033 5.74835 34.0788C5.7004 34.2544 5.61476 34.4173 5.49737 34.5563C5.37999 34.6953 5.2337 34.807 5.06871 34.8837C4.90371 34.9603 4.72398 35.0001 4.54205 35.0002H1.48345C0.860835 35 0.283687 35.4258 0.183609 36.04C0.153204 36.2193 0.162291 36.4032 0.210236 36.5787C0.258181 36.7542 0.34383 36.9171 0.461211 37.0561C0.578593 37.1951 0.724881 37.3069 0.889877 37.3835C1.05487 37.4602 1.2346 37.4999 1.41654 37.5H37.6665C37.998 37.5 38.316 37.3683 38.5504 37.1339C38.7848 36.8994 38.9165 36.5815 38.9165 36.25V15C38.9165 14.0054 38.5215 13.0516 37.8182 12.3483C37.1149 11.6451 36.1611 11.25 35.1665 11.25Z" fill="white"/>
</g>
<defs>
<clipPath id="clip0_4001_1910">
<rect width="60" height="60" fill="white" transform="translate(0.166016)"/>
</clipPath>
</defs>
</svg>
