<svg width="30" height="30" viewBox="0 0 30 30" fill="none" xmlns="http://www.w3.org/2000/svg">
<g clip-path="url(#clip0_2005_491)">
<path d="M22.0605 10.9395C22.6465 11.5254 22.6465 12.4746 22.0605 13.0605L14.5605 20.5605C14.2676 20.8535 13.8838 21 13.5 21C13.1162 21 12.7324 20.8535 12.4395 20.5605L7.93945 16.0605C7.35352 15.4746 7.35352 14.5254 7.93945 13.9395C8.52539 13.3535 9.47461 13.3535 10.0605 13.9395L13.5 17.3789L19.9395 10.9395C20.5254 10.3535 21.4746 10.3535 22.0605 10.9395ZM30 15C30 23.2713 23.2713 30 15 30C6.72873 30 0 23.2713 0 15C0 6.72873 6.72879 0 15 0C23.2712 0 30 6.72879 30 15ZM27 15C27 8.3833 21.6167 3 15 3C8.3833 3 3 8.3833 3 15C3 21.6167 8.3833 27 15 27C21.6167 27 27 21.6167 27 15Z" fill="url(#paint0_linear_2005_491)"/>
</g>
<defs>
<linearGradient id="paint0_linear_2005_491" x1="15" y1="0" x2="15" y2="30" gradientUnits="userSpaceOnUse">
<stop stop-color="#FFF3D8"/>
<stop offset="1" stop-color="#FFD062"/>
</linearGradient>
<clipPath id="clip0_2005_491">
<rect width="30" height="30" fill="white"/>
</clipPath>
</defs>
</svg>
