<svg width="90" height="90" viewBox="0 0 90 90" fill="none" xmlns="http://www.w3.org/2000/svg">
<path fill-rule="evenodd" clip-rule="evenodd" d="M45 76.875C27.3959 76.875 13.125 62.604 13.125 45C13.125 27.3959 27.3959 13.125 45 13.125C62.604 13.125 76.875 27.3959 76.875 45C76.875 62.604 62.604 76.875 45 76.875ZM7.5 45C7.5 24.2893 24.2893 7.5 45 7.5C65.7105 7.5 82.5 24.2893 82.5 45C82.5 65.7105 65.7105 82.5 45 82.5C24.2893 82.5 7.5 65.7105 7.5 45ZM63.75 42.1875H26.25V47.8125H63.75V42.1875Z" fill="#CF06F2"/>
</svg>
