<svg width="34" height="33" viewBox="0 0 34 33" fill="none" xmlns="http://www.w3.org/2000/svg">
<path fill-rule="evenodd" clip-rule="evenodd" d="M5.3125 16.5C5.3125 22.9548 10.5452 28.1875 17 28.1875C23.4548 28.1875 28.6875 22.9548 28.6875 16.5C28.6875 10.0452 23.4548 4.8125 17 4.8125C10.5452 4.8125 5.3125 10.0452 5.3125 16.5ZM17 2.75C9.40608 2.75 3.25 8.90608 3.25 16.5C3.25 24.0938 9.40608 30.25 17 30.25C24.5938 30.25 30.75 24.0938 30.75 16.5C30.75 8.90608 24.5938 2.75 17 2.75ZM18.0312 15.4688H23.875V17.5312H18.0312V23.375H15.9688V17.5312H10.125V15.4688H15.9688V9.625H18.0312V15.4688Z" fill="white"/>
</svg>
