<svg width="24" height="24" viewBox="0 0 24 24" fill="none" xmlns="http://www.w3.org/2000/svg">
<path d="M16.5 3.57129C17.3165 3.76141 18.0724 4.16526 18.6875 4.74609L18.835 4.8916C20.6455 6.75716 20.6234 9.73105 18.7852 11.5693L18.4883 11.8662L15.0508 15.3027L11.2109 19.1436C9.44072 20.9137 6.56725 20.9046 4.80859 19.123C3.06118 17.3528 3.07613 14.5021 4.8418 12.75L10.4736 7.16211C11.4022 6.24067 12.901 6.24388 13.8262 7.16895C14.7536 8.09659 14.7538 9.6007 13.8262 10.5283L8.27246 16.0811L7.91895 15.7275L13.4727 10.1738C14.2047 9.44151 14.2048 8.25479 13.4727 7.52246C12.7423 6.79211 11.5584 6.78911 10.8252 7.5166L5.19434 13.1055C3.62435 14.6633 3.61124 17.1975 5.16504 18.7715C6.72877 20.3555 9.28248 20.3637 10.8564 18.79L14.6973 14.9492L18.1348 11.5127L18.4307 11.2148L18.4316 11.2158C20.0766 9.57088 20.0965 6.90975 18.4766 5.24023C17.9316 4.67882 17.2461 4.28444 16.5 4.08887V3.57129Z" fill="#6E44D9" stroke="#6E44D9"/>
</svg>
