<svg width="24" height="24" viewBox="0 0 24 24" fill="none" xmlns="http://www.w3.org/2000/svg">
<path fill-rule="evenodd" clip-rule="evenodd" d="M20.5 12C20.5 16.6944 16.6944 20.5 12 20.5C7.30558 20.5 3.5 16.6944 3.5 12C3.5 7.30558 7.30558 3.5 12 3.5C16.6944 3.5 20.5 7.30558 20.5 12ZM22 12C22 17.5228 17.5228 22 12 22C6.47715 22 2 17.5228 2 12C2 6.47715 6.47715 2 12 2C17.5228 2 22 6.47715 22 12Z" fill="url(#paint0_radial_1087_7408)"/>
<path fill-rule="evenodd" clip-rule="evenodd" d="M12.9659 8.348H11.0339V6.5H12.9659V8.348ZM12.502 10H10.5V11.5H11.502V15.5H10.5V17H11.502H13.002H14V15.5H13.002V10.5C13.002 10.2239 12.7781 10 12.502 10Z" fill="url(#paint1_radial_1087_7408)"/>
<defs>
<radialGradient id="paint0_radial_1087_7408" cx="0" cy="0" r="1" gradientUnits="userSpaceOnUse" gradientTransform="translate(17.1234 6.37347) rotate(86.66) scale(14.8693)">
<stop stop-color="#CF06F2"/>
<stop offset="0.05" stop-color="#C705EF"/>
<stop offset="0.5" stop-color="#8D02DC"/>
<stop offset="0.83" stop-color="#6900D0"/>
<stop offset="1" stop-color="#5C00CC"/>
</radialGradient>
<radialGradient id="paint1_radial_1087_7408" cx="0" cy="0" r="1" gradientTransform="matrix(0.151603 7.79315 -2.59772 0.454809 13.1466 8.79607)" gradientUnits="userSpaceOnUse">
<stop stop-color="#CF06F2"/>
<stop offset="0.05" stop-color="#C705EF"/>
<stop offset="0.5" stop-color="#8D02DC"/>
<stop offset="0.83" stop-color="#6900D0"/>
<stop offset="1" stop-color="#5C00CC"/>
</radialGradient>
</defs>
</svg>
