<svg width="18" height="16" viewBox="0 0 18 16" fill="none" xmlns="http://www.w3.org/2000/svg">
<path fill-rule="evenodd" clip-rule="evenodd" d="M5.80797 0L0.22396 5.49485C0.0806799 5.63583 0 5.82843 0 6.0294C0 6.2304 0.0806799 6.423 0.22396 6.564L5.80797 12.0589L6.86006 10.9897L2.59932 6.797H12.6477C14.7748 6.797 16.4991 8.5213 16.4991 10.6484C16.4991 12.7762 14.7737 14.5008 12.6459 14.4998L10.0121 14.4986L10.0114 15.9986L12.6452 15.9998C15.6017 16.0012 17.9991 13.6049 17.9991 10.6484C17.9991 7.6929 15.6032 5.297 12.6477 5.297H2.56362L6.86006 1.06916L5.80797 0Z" fill="#6E44D9"/>
</svg>
