<svg width="24" height="24" viewBox="0 0 24 24" fill="none" xmlns="http://www.w3.org/2000/svg">
<path fill-rule="evenodd" clip-rule="evenodd" d="M16 19.5H9V21H16C17.6569 21 19 19.6569 19 18V6C19 4.34315 17.6569 3 16 3H9V4.5H16C16.8284 4.5 17.5 5.17157 17.5 6V18C17.5 18.8284 16.8284 19.5 16 19.5ZM10.1125 15.1836L11.1716 16.2427L12.2322 15.182L14.7071 12.7072C15.0976 12.3166 15.0976 11.6835 14.7071 11.293L12.2322 8.81808L11.1716 7.75742L10.1125 8.81647L12.5461 11.2501H5V12.7501H12.5461L10.1125 15.1836Z" fill="#6E44D9"/>
</svg>
