<svg width="181" height="52" viewBox="0 0 181 52" fill="none" xmlns="http://www.w3.org/2000/svg">
<path d="M37.5659 11.6716C34.5863 6.18409 28.2822 3 19.7075 3H0V11.6716H37.5659Z" fill="#6E44D9"/>
<path d="M10.5388 44.4223V19.685H0V48.9903H6.92684L10.5388 44.4223Z" fill="white"/>
<path d="M30.1121 34.2119C36.033 31.6472 39.482 26.5952 39.482 19.6947H28.8187C28.8187 24.408 25.9158 27.3598 20.1673 27.6792V36.1862H20.2344L29.0103 49H40.3251L30.1121 34.2215V34.2119Z" fill="white"/>
<path d="M69.3496 34.0457H65.2517L62.7885 29.9025C62.6044 29.5882 62.4277 29.3075 62.2583 29.0604C62.0889 28.8134 61.9159 28.6038 61.7392 28.4317C61.5698 28.252 61.3894 28.1173 61.1979 28.0274C61.0138 27.9301 60.8113 27.8815 60.5904 27.8815H59.6295V34.0457H56.0617V17.9446H61.7171C65.5609 17.9446 67.4829 19.4043 67.4829 22.3236C67.4829 22.885 67.3982 23.4052 67.2288 23.8843C67.0595 24.3559 66.8201 24.7825 66.5109 25.1643C66.2016 25.546 65.826 25.8754 65.3842 26.1524C64.9498 26.4293 64.4637 26.6464 63.9262 26.8036V26.8485C64.1618 26.9234 64.3901 27.0469 64.611 27.219C64.8319 27.3837 65.0455 27.5783 65.2517 27.8029C65.4579 28.0274 65.653 28.2707 65.8371 28.5327C66.0285 28.7872 66.2016 29.038 66.3562 29.285L69.3496 34.0457ZM59.6295 20.6618V25.1418H61.1758C61.9417 25.1418 62.5565 24.9173 63.0205 24.4681C63.4917 24.0115 63.7274 23.4464 63.7274 22.7727C63.7274 21.3654 62.899 20.6618 61.2421 20.6618H59.6295Z" fill="white"/>
<path d="M80.34 34.0457H70.8407V17.9446H79.9755V20.8976H74.4085V24.4794H79.5889V27.4211H74.4085V31.104H80.34V34.0457Z" fill="white"/>
<path d="M97.1403 34.0457H93.2523L92.1256 30.4639H86.4924L85.3768 34.0457H81.5108L87.2766 17.9446H91.5071L97.1403 34.0457ZM91.3083 27.6794L89.6072 22.2674C89.482 21.8632 89.3937 21.3804 89.3421 20.819H89.2538C89.2169 21.2906 89.1249 21.7584 88.9776 22.2225L87.2545 27.6794H91.3083Z" fill="white"/>
<path d="M99.1175 34.0457V17.9446H104.729C110.355 17.9446 113.168 20.5608 113.168 25.7931C113.168 28.3007 112.398 30.303 110.859 31.8001C109.327 33.2972 107.284 34.0457 104.729 34.0457H99.1175ZM102.685 20.8976V31.104H104.453C105.999 31.104 107.21 30.6324 108.087 29.6892C108.97 28.746 109.412 27.4623 109.412 25.838C109.412 24.3035 108.974 23.0983 108.098 22.2225C107.229 21.3392 106.006 20.8976 104.43 20.8976H102.685Z" fill="white"/>
<path d="M127.737 17.9446L122.578 28.3194V34.0457H119.011V28.3867L113.985 17.9446H118.061L120.612 23.9516C120.656 24.0639 120.778 24.5018 120.977 25.2653H121.021C121.117 24.7264 121.231 24.3035 121.363 23.9966L123.959 17.9446H127.737Z" fill="white"/>
<path d="M150.358 25.9952C150.358 31.5168 145.955 35.9931 140.523 35.9931C135.091 35.9931 130.687 31.5168 130.687 25.9952C130.687 20.4735 135.091 15.9973 140.523 15.9973C145.955 15.9973 150.358 20.4735 150.358 25.9952Z" fill="#6E44D9"/>
<path d="M147.24 15.9973V28.6027H150.358V31.8935H147.24V35.9931H142.018V31.8935H130.687V28.4493C131.69 27.5848 132.73 26.6412 133.806 25.6187C134.881 24.5868 135.921 23.5271 136.924 22.4394C137.927 21.3518 138.858 20.2595 139.716 19.1626C140.586 18.0563 141.323 17.0012 141.928 15.9973H147.24ZM135.818 28.6027H142.018V21.6167C141.595 22.221 141.136 22.8345 140.641 23.4573C140.145 24.0709 139.625 24.6798 139.081 25.284C138.537 25.879 137.988 26.46 137.432 27.027C136.876 27.5848 136.338 28.11 135.818 28.6027Z" fill="white"/>
<path d="M166.597 33.9054H162.499L160.035 29.7622C159.851 29.4478 159.675 29.1671 159.505 28.9201C159.336 28.6731 159.163 28.4635 158.986 28.2913C158.817 28.1117 158.636 27.9769 158.445 27.8871C158.261 27.7898 158.058 27.7411 157.837 27.7411H156.876V33.9054H153.309V17.8043H158.964C162.808 17.8043 164.73 19.2639 164.73 22.1832C164.73 22.7446 164.645 23.2649 164.476 23.7439C164.306 24.2155 164.067 24.6422 163.758 25.0239C163.449 25.4057 163.073 25.735 162.631 26.012C162.197 26.289 161.711 26.506 161.173 26.6632V26.7081C161.409 26.783 161.637 26.9065 161.858 27.0787C162.079 27.2434 162.292 27.438 162.499 27.6625C162.705 27.8871 162.9 28.1304 163.084 28.3924C163.275 28.6469 163.449 28.8976 163.603 29.1446L166.597 33.9054ZM156.876 20.5215V25.0015H158.423C159.189 25.0015 159.803 24.7769 160.267 24.3278C160.739 23.8712 160.974 23.306 160.974 22.6323C160.974 21.2251 160.146 20.5215 158.489 20.5215H156.876Z" fill="white"/>
<path d="M181 26.9327C181 31.7683 178.784 34.1861 174.351 34.1861C170.05 34.1861 167.9 31.8244 167.9 27.1011V17.8043H171.479V27.146C171.479 29.751 172.48 31.0534 174.483 31.0534C176.449 31.0534 177.432 29.7959 177.432 27.2808V17.8043H181V26.9327Z" fill="white"/>
</svg>
