<svg width="100" height="100" viewBox="0 0 100 100" fill="none" xmlns="http://www.w3.org/2000/svg">
<circle cx="50" cy="50" r="50" fill="url(#paint0_radial_1024_550)"/>
<path d="M62.5083 70.2186H54.9778V67.097H41.0218V70.2186H33.4917C32.6677 70.2186 32 70.8632 32 71.6578C32 72.4528 32.6677 73.097 33.4917 73.097H62.5083C63.3319 73.097 64 72.4528 64 71.6578C63.9996 70.8632 63.3319 70.2186 62.5083 70.2186Z" fill="white"/>
<path d="M25 62.3776C25 63.3272 25.717 64.097 26.6012 64.097H69.3988C70.283 64.097 71 63.3272 71 62.3776V59.097H25V62.3776Z" fill="white"/>
<path d="M57.3015 34.9851C57.3015 34.3396 57.3657 33.7089 57.4867 33.097H26.6012C25.717 33.097 25 33.791 25 34.6468V56.097H71V44.4691C69.9519 44.8152 68.8285 45.0034 67.6605 45.0034C61.9485 45.0034 57.3015 40.5092 57.3015 34.9851ZM47.475 52.9242H31.584C30.7685 52.9242 30.1069 52.2843 30.1069 51.4946C30.1069 50.7053 30.7685 50.065 31.584 50.065H47.475C48.2909 50.065 48.9521 50.7053 48.9521 51.4946C48.9521 52.2843 48.2909 52.9242 47.475 52.9242ZM47.475 46.8922H31.584C30.7685 46.8922 30.1069 46.2518 30.1069 45.4625C30.1069 44.6728 30.7685 44.0329 31.584 44.0329H47.475C48.2909 44.0329 48.9521 44.6728 48.9521 45.4625C48.9521 46.2518 48.2909 46.8922 47.475 46.8922ZM51.9937 40.5588H31.584C30.7685 40.5588 30.1069 39.9184 30.1069 39.1291C30.1069 38.3394 30.7685 37.6995 31.584 37.6995H51.9937C52.8092 37.6995 53.4704 38.3394 53.4704 39.1291C53.4704 39.9184 52.8092 40.5588 51.9937 40.5588Z" fill="white"/>
<path d="M67.5 27.097C63.3578 27.097 60 30.4549 60 34.597C60 38.7392 63.3578 42.097 67.5 42.097C71.6422 42.097 75 38.7392 75 34.597C75 30.4549 71.6422 27.097 67.5 27.097ZM69.2474 37.5898C69.2474 38.4155 68.5779 39.0854 67.7522 39.0854C66.9261 39.0854 66.2566 38.4155 66.2566 37.5898V34.5325C65.7217 34.7343 65.0955 34.6183 64.667 34.1867C64.2412 33.7578 64.1302 33.1359 64.3301 32.6049C64.4036 32.4103 64.5173 32.2278 64.6747 32.0719L66.6983 30.0627C67.1268 29.6373 67.7692 29.5116 68.3265 29.7432C68.8796 29.9737 69.2412 30.5113 69.247 31.1093C69.247 31.1143 69.2474 31.1189 69.2474 31.124V37.5898Z" fill="white"/>
<defs>
<radialGradient id="paint0_radial_1024_550" cx="0" cy="0" r="1" gradientUnits="userSpaceOnUse" gradientTransform="translate(75.6172 21.8673) rotate(86.66) scale(74.3467)">
<stop stop-color="#CF06F2"/>
<stop offset="0.05" stop-color="#C705EF"/>
<stop offset="0.5" stop-color="#8D02DC"/>
<stop offset="0.83" stop-color="#6900D0"/>
<stop offset="1" stop-color="#5C00CC"/>
</radialGradient>
</defs>
</svg>
