<svg width="100" height="100" viewBox="0 0 100 100" fill="none" xmlns="http://www.w3.org/2000/svg">
<circle cx="50" cy="50" r="50" fill="url(#paint0_radial_1024_1455)"/>
<path d="M72.9672 45.0175C72.1553 44.5455 71.4257 43.9443 70.8072 43.2375C70.8697 42.2535 71.1041 41.2881 71.4997 40.385C72.2272 38.3325 73.0497 36.0075 71.7297 34.2C70.4097 32.3925 67.9172 32.45 65.7297 32.5C64.7631 32.602 63.7862 32.536 62.8422 32.305C62.339 31.4863 61.9797 30.5875 61.7797 29.6475C61.1597 27.535 60.4522 25.1475 58.2797 24.4325C56.1847 23.7575 54.2447 25.2425 52.5297 26.5475C51.7897 27.2233 50.9322 27.7579 49.9997 28.125C49.0574 27.7609 48.1904 27.2261 47.4422 26.5475C45.7322 25.25 43.7997 23.75 41.6947 24.435C39.5272 25.14 38.8197 27.535 38.1947 29.6475C37.995 30.5844 37.6392 31.4811 37.1422 32.3C36.196 32.5279 35.2183 32.5955 34.2497 32.5C32.0547 32.44 29.5822 32.375 28.2497 34.2C26.9172 36.025 27.7497 38.3325 28.4797 40.3825C28.8808 41.2843 29.1186 42.2501 29.1822 43.235C28.5649 43.9427 27.8361 44.5448 27.0247 45.0175C25.1947 46.2675 23.1172 47.69 23.1172 50C23.1172 52.31 25.1947 53.7275 27.0247 54.9825C27.8359 55.4545 28.5647 56.0557 29.1822 56.7625C29.1253 57.747 28.8942 58.7137 28.4997 59.6175C27.7747 61.6675 26.9547 63.9925 28.2722 65.8C29.5897 67.6075 32.0747 67.55 34.2722 67.5C35.2396 67.403 36.2165 67.4689 37.1622 67.695C37.6631 68.5146 38.0215 69.4131 38.2222 70.3525C38.8422 72.465 39.5497 74.8525 41.7222 75.5675C42.0705 75.6792 42.4339 75.7365 42.7997 75.7375C44.5577 75.4852 46.1916 74.6857 47.4697 73.4525C48.2097 72.7767 49.0672 72.2421 49.9997 71.875C50.9419 72.2391 51.809 72.7739 52.5572 73.4525C54.2697 74.76 56.2097 76.255 58.3072 75.565C60.4747 74.86 61.1822 72.465 61.8072 70.355C62.0075 69.4163 62.366 68.5185 62.8672 67.7C63.8096 67.4693 64.7845 67.4017 65.7497 67.5C67.9447 67.5525 70.4172 67.625 71.7497 65.8C73.0822 63.975 72.2497 61.6675 71.5197 59.615C71.1213 58.714 70.8836 57.7504 70.8172 56.7675C71.4348 56.0592 72.1645 55.457 72.9772 54.985C74.8072 53.735 76.8847 52.31 76.8847 50C76.8847 47.69 74.7997 46.27 72.9672 45.0175ZM58.6247 47.75L48.6247 55.25C48.2638 55.521 47.8172 55.6525 47.367 55.6203C46.9168 55.5882 46.4934 55.3945 46.1747 55.075L41.1747 50.075C40.8435 49.7196 40.6632 49.2494 40.6717 48.7637C40.6803 48.2779 40.8771 47.8145 41.2206 47.4709C41.5642 47.1274 42.0276 46.9306 42.5134 46.9221C42.9991 46.9135 43.4692 47.0938 43.8247 47.425L47.6747 51.275L56.3747 44.75C56.5717 44.6023 56.7958 44.4948 57.0344 44.4337C57.2729 44.3726 57.5211 44.359 57.7649 44.3938C58.0086 44.4287 58.2431 44.5112 58.455 44.6366C58.6669 44.7621 58.852 44.928 58.9997 45.125C59.1474 45.322 59.2549 45.5461 59.316 45.7847C59.3771 46.0232 59.3907 46.2714 59.3558 46.5152C59.321 46.7589 59.2385 46.9934 59.1131 47.2053C58.9876 47.4172 58.8217 47.6023 58.6247 47.75Z" fill="white"/>
<defs>
<radialGradient id="paint0_radial_1024_1455" cx="0" cy="0" r="1" gradientUnits="userSpaceOnUse" gradientTransform="translate(75.6172 21.8673) rotate(86.66) scale(74.3467)">
<stop stop-color="#CF06F2"/>
<stop offset="0.05" stop-color="#C705EF"/>
<stop offset="0.5" stop-color="#8D02DC"/>
<stop offset="0.83" stop-color="#6900D0"/>
<stop offset="1" stop-color="#5C00CC"/>
</radialGradient>
</defs>
</svg>
