<svg width="100" height="100" viewBox="0 0 100 100" fill="none" xmlns="http://www.w3.org/2000/svg">
<circle cx="50" cy="50" r="50" fill="url(#paint0_radial_1024_2618)"/>
<path d="M25.8416 64.7834C25.4159 64.7834 24.9902 65.1027 24.9902 65.6348V69.8917C24.9902 70.3174 25.3095 70.7431 25.8416 70.7431H47.0197C45.6362 69.0403 44.6784 67.0183 44.0399 64.8899H25.8416V64.7834Z" fill="white"/>
<path d="M62.8769 51.9064H58.0879V59.2495H62.8769C64.8989 59.2495 66.6017 57.6532 66.6017 55.5247C66.4953 53.6091 64.8989 51.9064 62.8769 51.9064Z" fill="white"/>
<path d="M51.2766 29.9833V25.7264C51.2766 25.3007 50.9573 24.875 50.4252 24.875H25.8416C25.4159 24.875 24.9902 25.1943 24.9902 25.7264V29.9833C24.9902 30.409 25.3095 30.8347 25.8416 30.8347H50.5316C50.8509 30.8347 51.2766 30.409 51.2766 29.9833Z" fill="white"/>
<path d="M60.2166 45.521C52.1284 45.521 45.4238 52.1192 45.4238 60.3137C45.4238 68.5083 52.1284 75 60.2166 75C68.3047 75 75.0093 68.4018 75.0093 60.2073C75.0093 52.0128 68.4111 45.521 60.2166 45.521ZM62.8771 61.4844H58.0881V64.0385H65.9634V66.167H58.0881V70.6367H55.9597V66.167H51.8092V64.0385H55.9597V61.4844H51.8092V59.3559H55.9597V49.8843H62.8771C66.0698 49.8843 68.7304 52.4385 68.7304 55.7376C68.7304 59.0367 66.0698 61.4844 62.8771 61.4844Z" fill="white"/>
<path d="M25.8416 56.8018C25.4159 56.8018 24.9902 57.121 24.9902 57.6531V61.91C24.9902 62.3357 25.3095 62.7614 25.8416 62.7614H43.6142C43.5077 61.91 43.4013 61.1651 43.4013 60.3137C43.4013 59.1431 43.5077 57.9724 43.7206 56.9082H25.8416V56.8018Z" fill="white"/>
<path d="M51.2766 37.965V33.7081C51.2766 33.2824 50.9573 32.8567 50.4252 32.8567H25.8416C25.3095 32.9631 24.9902 33.2824 24.9902 33.7081V37.965C24.9902 38.3907 25.3095 38.8163 25.8416 38.8163H50.5316C50.8509 38.8163 51.2766 38.3907 51.2766 37.965Z" fill="white"/>
<path d="M25.8416 48.9265C25.4159 48.9265 24.9902 49.2458 24.9902 49.7779V54.0348C24.9902 54.4605 25.3095 54.8862 25.8416 54.8862H44.3591C45.1041 52.6513 46.2747 50.7357 47.8711 49.0329H25.8416V48.9265Z" fill="white"/>
<path d="M51.2766 45.9467V41.6898C51.2766 41.2641 50.9573 40.8384 50.4252 40.8384H25.8416C25.4159 40.8384 24.9902 41.1576 24.9902 41.6898V45.9467C24.9902 46.3724 25.3095 46.798 25.8416 46.798H49.9995V46.9045C50.4252 46.5852 50.8509 46.2659 51.2766 45.9467Z" fill="white"/>
<defs>
<radialGradient id="paint0_radial_1024_2618" cx="0" cy="0" r="1" gradientUnits="userSpaceOnUse" gradientTransform="translate(75.6172 21.8673) rotate(86.66) scale(74.3467)">
<stop stop-color="#CF06F2"/>
<stop offset="0.05" stop-color="#C705EF"/>
<stop offset="0.5" stop-color="#8D02DC"/>
<stop offset="0.83" stop-color="#6900D0"/>
<stop offset="1" stop-color="#5C00CC"/>
</radialGradient>
</defs>
</svg>
