<svg width="24" height="24" viewBox="0 0 24 24" fill="none" xmlns="http://www.w3.org/2000/svg">
<path d="M23.0778 8.55183C22.9419 7.94956 22.0272 7.66431 20.9993 7.89976C20.7774 7.9541 20.5691 8.02656 20.3789 8.1126L20.8453 9.28542C20.8725 9.30805 20.8996 9.32618 20.9268 9.34882C21.1759 9.54807 21.3932 9.76995 21.5789 10.019C22.5751 9.76088 23.2136 9.136 23.0778 8.55183Z" fill="white"/>
<path d="M3.0124 9.35802C3.03957 9.33535 3.06674 9.31272 3.09391 9.29461L3.57391 8.09007C3.39732 8.00856 3.20712 7.94519 3.00336 7.89989C1.95733 7.6599 1.06524 7.94066 0.924862 8.55197C0.789018 9.12707 1.40939 9.74291 2.37392 10.0101C2.55504 9.77008 2.76788 9.55273 3.0124 9.35802Z" fill="white"/>
<path d="M3.09766 17.0696V19.0666C3.09766 19.5103 3.45541 19.8681 3.89917 19.8681H6.10446C6.54369 19.8681 6.90144 19.5103 6.90144 19.0666V17.3277H4.10749C3.74973 17.3277 3.40558 17.2371 3.09766 17.0696Z" fill="white"/>
<path d="M17.041 17.3277V19.0666C17.041 19.5103 17.3987 19.8681 17.847 19.8681H20.0478C20.487 19.8681 20.8493 19.5103 20.8493 19.0666V17.0696C20.5414 17.2371 20.1882 17.3277 19.835 17.3277H17.041Z" fill="white"/>
<path d="M20.6402 9.70225C20.5801 9.6536 20.5195 9.6085 20.4722 9.5771L18.6662 5.05808C18.4415 4.49558 17.9042 4.13208 17.2971 4.13208H6.64184C6.03468 4.13208 5.49738 4.49558 5.27274 5.05808L3.46495 9.58152C3.40658 9.62309 3.34909 9.66687 3.29426 9.71065C2.29794 10.5071 1.88535 11.744 2.03305 13.4929C2.10116 14.2995 2.28556 15.0929 2.5814 15.8513C2.7008 16.1622 2.91528 16.4222 3.19785 16.6017C3.46805 16.7804 3.78202 16.8746 4.10617 16.8746H19.8327C20.1551 16.8746 20.4793 16.7777 20.7446 16.6026C21.0249 16.4195 21.2368 16.1599 21.3571 15.8522C21.6538 15.0915 21.8382 14.2978 21.9058 13.4929C22.0535 11.7418 21.6396 10.5018 20.6402 9.70225ZM5.81979 8.49466L6.91563 5.74189C6.9813 5.57479 7.14025 5.46793 7.32136 5.46793H16.618C16.7991 5.46793 16.958 5.57526 17.0232 5.74098L18.1196 8.4951C18.1748 8.63139 18.1594 8.77768 18.0788 8.89766C17.9964 9.02037 17.8633 9.09058 17.7138 9.09058H6.22552C6.07882 9.09058 5.94748 9.02084 5.86506 8.89948C5.78264 8.77812 5.76636 8.6305 5.81979 8.49466ZM6.63786 13.8136H4.57251C4.00194 13.8136 3.53554 13.3472 3.53554 12.7766V12.3057C3.53554 12.1019 3.69855 11.9389 3.90278 11.9389H5.49628C5.9129 11.9389 6.28873 12.1065 6.56498 12.3782C6.83666 12.6544 7.00421 13.0302 7.00421 13.4468C7.00421 13.6506 6.8412 13.8136 6.63786 13.8136ZM15.8205 12.4392L15.1879 14.15C15.144 14.2737 15.014 14.3543 14.865 14.3543H9.07558C8.92661 14.3543 8.79665 14.2737 8.75318 14.15L8.12012 12.4392C8.05174 12.2509 8.2134 12.0575 8.44299 12.0575H15.4981C15.7272 12.0575 15.8889 12.2509 15.8205 12.4392ZM20.7612 12.7766C20.7612 12.9193 20.732 13.0554 20.6794 13.1794C20.5215 13.5513 20.1521 13.8136 19.7242 13.8136H17.6593C17.4555 13.8136 17.2925 13.6506 17.2925 13.4468C17.2925 13.0302 17.4601 12.6544 17.7363 12.3782C18.008 12.1065 18.3838 11.9389 18.8004 11.9389H20.3944C20.6027 11.9389 20.7612 12.1019 20.7612 12.3057V12.7766Z" fill="white"/>
</svg>
