<svg width="24" height="24" viewBox="0 0 24 24" fill="none" xmlns="http://www.w3.org/2000/svg">
<path d="M1.99526 12.0269C1.77412 12.1083 1.66014 12.3534 1.7407 12.5754L2.00984 13.316L4.05916 11.2666L1.99526 12.0269Z" fill="white"/>
<path d="M3.93359 18.6094L5.16783 22.0035C5.2064 22.1107 5.28696 22.1981 5.38981 22.2452C5.44723 22.2718 5.50894 22.2855 5.57065 22.2855C5.62123 22.2855 5.67093 22.277 5.71894 22.259L7.08091 21.7567L3.93359 18.6094Z" fill="white"/>
<path d="M22.2596 15.7114L20.8471 11.8279L17.4573 15.2177L19.1372 14.5989C19.3575 14.5149 19.606 14.6298 19.6874 14.8526C19.7697 15.0746 19.6557 15.3214 19.4337 15.4029L17.2995 16.1897C17.2507 16.2077 17.201 16.2163 17.1512 16.2163C16.9772 16.2163 16.8126 16.1091 16.7493 15.936C16.7484 15.9334 16.7493 15.9308 16.7484 15.9283L13.1562 19.5204L22.0051 16.26C22.227 16.1786 22.341 15.9334 22.2596 15.7114Z" fill="white"/>
<path d="M22.1598 8.69686L15.3029 1.83995C15.1357 1.67282 14.864 1.67282 14.6969 1.83995L1.8402 14.6966C1.67306 14.8638 1.67306 15.1355 1.8402 15.3026L8.69711 22.1595C8.78023 22.2435 8.88996 22.2855 8.99968 22.2855C9.1094 22.2855 9.21909 22.2435 9.3031 22.1604L22.1598 9.3037C22.3269 9.13572 22.3269 8.86484 22.1598 8.69686ZM6.73176 13.5893L5.01752 15.3035C4.93351 15.3866 4.82383 15.4286 4.71411 15.4286C4.60438 15.4286 4.4947 15.3866 4.41069 15.3035C4.24355 15.1363 4.24355 14.8646 4.41069 14.6975L6.12493 12.9832C6.29206 12.8161 6.56378 12.8161 6.73092 12.9832C6.89805 13.1504 6.8989 13.4212 6.73176 13.5893ZM14.1329 14.1335C13.8295 14.4369 13.4172 14.5826 12.9587 14.5826C12.201 14.5826 11.3156 14.1858 10.575 13.4444C10.0333 12.9027 9.65276 12.2547 9.5045 11.6205C9.33994 10.9134 9.47538 10.298 9.88591 9.88655C10.2965 9.47513 10.9119 9.33969 11.6198 9.50514C12.2541 9.65344 12.9021 10.0331 13.4438 10.5757C14.6343 11.7653 14.9377 13.3287 14.1329 14.1335ZM19.5884 9.3037L17.8742 11.0179C17.7902 11.1011 17.6805 11.1431 17.5708 11.1431C17.4611 11.1431 17.3514 11.1011 17.2674 11.0179C17.1002 10.8508 17.1002 10.5791 17.2674 10.4119L18.9816 8.6977C19.1487 8.53057 19.4205 8.53057 19.5876 8.6977C19.7547 8.86484 19.7556 9.13572 19.5884 9.3037Z" fill="white"/>
</svg>
