<svg width="24" height="24" viewBox="0 0 24 24" fill="none" xmlns="http://www.w3.org/2000/svg">
<path d="M20.38 4.89999C19.495 4.01344 18.3348 3.45427 17.09 3.31434C15.8451 3.17441 14.5897 3.46205 13.53 4.12999L15.75 6.38999C15.8387 6.48813 15.907 6.6029 15.951 6.72764C15.9951 6.85238 16.0139 6.98462 16.0065 7.11669C15.999 7.24876 15.9654 7.37805 15.9077 7.49705C15.8499 7.61606 15.7691 7.72242 15.67 7.80999C15.4851 7.97306 15.2465 8.06209 15 8.05999C14.8588 8.06106 14.7189 8.03221 14.5896 7.97533C14.4604 7.91845 14.3446 7.83484 14.25 7.72999L11.43 4.89999C11.0256 4.49597 10.5598 4.15846 10.05 3.89999C9.00975 3.36708 7.82761 3.17682 6.67269 3.35643C5.51778 3.53605 4.44925 4.07633 3.61999 4.89999C2.58229 6.10786 2.01172 7.64757 2.01172 9.23999C2.01172 10.8324 2.58229 12.3721 3.61999 13.58C5.47999 15.58 9.99999 20.21 12.03 20.21C13.61 20.21 16.71 17.4 18.86 15.21C19.4 14.67 19.86 14.21 20.26 13.76L20.41 13.6C21.4489 12.3871 22.0174 10.8414 22.0119 9.24441C22.0064 7.64746 21.4272 6.10564 20.38 4.89999ZM14 13.5H13V14.5C13 14.7652 12.8946 15.0196 12.7071 15.2071C12.5196 15.3946 12.2652 15.5 12 15.5C11.7348 15.5 11.4804 15.3946 11.2929 15.2071C11.1053 15.0196 11 14.7652 11 14.5V13.5H9.99999C9.73477 13.5 9.48042 13.3946 9.29288 13.2071C9.10534 13.0196 8.99999 12.7652 8.99999 12.5C8.99999 12.2348 9.10534 11.9804 9.29288 11.7929C9.48042 11.6053 9.73477 11.5 9.99999 11.5H11V10.5C11 10.2348 11.1053 9.98042 11.2929 9.79288C11.4804 9.60534 11.7348 9.49999 12 9.49999C12.2652 9.49999 12.5196 9.60534 12.7071 9.79288C12.8946 9.98042 13 10.2348 13 10.5V11.5H14C14.2652 11.5 14.5196 11.6053 14.7071 11.7929C14.8946 11.9804 15 12.2348 15 12.5C15 12.7652 14.8946 13.0196 14.7071 13.2071C14.5196 13.3946 14.2652 13.5 14 13.5Z" fill="white"/>
</svg>
