<svg width="24" height="24" viewBox="0 0 24 24" fill="none" xmlns="http://www.w3.org/2000/svg">
<path d="M22.2387 3.88208H1.76133C0.790127 3.88208 0 4.67221 0 5.64341V18.3564C0 19.3276 0.790127 20.1177 1.76133 20.1177H22.2387C23.2099 20.1177 24 19.3276 24 18.3564V5.64341C24 4.67221 23.2099 3.88208 22.2387 3.88208ZM7.38264 14.4533H9.76179C10.0473 14.4533 10.2786 14.6847 10.2786 14.9701C10.2786 15.2555 10.0472 15.4869 9.76179 15.4869H7.38264C7.09717 15.4869 6.86584 15.2555 6.86584 14.9701C6.86584 14.6847 7.09722 14.4533 7.38264 14.4533ZM2.235 9.26953C2.235 8.98406 2.46638 8.75273 2.7518 8.75273H5.84781C6.13328 8.75273 6.36461 8.98411 6.36461 9.26953V11.508C6.36461 11.7934 6.13323 12.0248 5.84781 12.0248H2.7518C2.46633 12.0248 2.235 11.7934 2.235 11.508V9.26953ZM2.7518 14.4533H5.13095C5.41642 14.4533 5.64775 14.6847 5.64775 14.9701C5.64775 15.2555 5.41637 15.4869 5.13095 15.4869H2.7518C2.46633 15.4869 2.235 15.2555 2.235 14.9701C2.235 14.6847 2.46643 14.4533 2.7518 14.4533ZM11.2453 17.785H2.7518C2.46633 17.785 2.235 17.5537 2.235 17.2682C2.235 16.9828 2.46638 16.7514 2.7518 16.7514H11.2453C11.5308 16.7514 11.7621 16.9828 11.7621 17.2682C11.7621 17.5537 11.5308 17.785 11.2453 17.785ZM14.3926 15.4869H12.0135C11.728 15.4869 11.4967 15.2555 11.4967 14.9701C11.4967 14.6847 11.7281 14.4533 12.0135 14.4533H14.3926C14.6781 14.4533 14.9094 14.6847 14.9094 14.9701C14.9094 15.2555 14.6781 15.4869 14.3926 15.4869ZM19.0235 15.4869H16.6443C16.3588 15.4869 16.1275 15.2555 16.1275 14.9701C16.1275 14.6847 16.3589 14.4533 16.6443 14.4533H19.0235C19.3089 14.4533 19.5403 14.6847 19.5403 14.9701C19.5403 15.2555 19.3088 15.4869 19.0235 15.4869ZM21.2482 7.93738H15.6369C15.3514 7.93738 15.1201 7.70601 15.1201 7.42059C15.1201 7.13516 15.3515 6.90379 15.6369 6.90379H21.2482C21.5337 6.90379 21.765 7.13516 21.765 7.42059C21.765 7.70601 21.5336 7.93738 21.2482 7.93738Z" fill="white"/>
</svg>
