<svg width="28" height="29" viewBox="0 0 28 29" fill="none" xmlns="http://www.w3.org/2000/svg">
<path d="M10.2058 25.875H8.75005C8.60377 25.875 8.45984 25.8382 8.33142 25.7682C8.203 25.6982 8.09418 25.5971 8.01492 25.4741C7.93566 25.3512 7.88849 25.2103 7.87772 25.0644C7.86694 24.9186 7.89291 24.7723 7.95325 24.6391L11.4784 16.8598L6.1852 16.7422L4.25474 19.0812C3.88669 19.5438 3.59302 19.75 2.8438 19.75H1.8638C1.70863 19.755 1.55455 19.7225 1.41461 19.6553C1.27467 19.5881 1.15299 19.4881 1.05989 19.3639C0.929736 19.1884 0.801767 18.8909 0.926455 18.4665L2.01036 14.5837C2.01856 14.5547 2.02841 14.5257 2.03935 14.4973C2.03989 14.4946 2.03989 14.4918 2.03935 14.4891C2.02805 14.4606 2.01837 14.4316 2.01036 14.4021L0.925361 10.4947C0.807783 10.0785 0.936298 9.78758 1.06536 9.61641C1.15203 9.50141 1.26447 9.40835 1.39364 9.34471C1.52282 9.28108 1.66512 9.24864 1.80911 9.25H2.8438C3.40325 9.25 3.9463 9.50102 4.26567 9.90625L6.15622 12.2059L11.4784 12.1271L7.95434 4.36148C7.89392 4.22829 7.86785 4.08208 7.87851 3.93621C7.88917 3.79035 7.93623 3.64948 8.01538 3.52649C8.09452 3.4035 8.20324 3.30231 8.33158 3.23218C8.45992 3.16204 8.60379 3.12519 8.75005 3.125H10.2217C10.427 3.12913 10.6287 3.17945 10.8119 3.27223C10.9951 3.36501 11.1551 3.49787 11.2799 3.66094L18.1186 11.9734L21.2779 11.8903C21.5092 11.8777 22.1501 11.8734 22.2983 11.8734C25.3204 11.875 27.125 12.8561 27.125 14.5C27.125 15.0173 26.9183 15.9766 25.5353 16.5869C24.7188 16.9478 23.6294 17.1305 22.2972 17.1305C22.1507 17.1305 21.5114 17.1261 21.2768 17.1135L18.118 17.0293L11.2624 25.3418C11.1375 25.5041 10.9777 25.6364 10.7948 25.7286C10.6119 25.8209 10.4106 25.871 10.2058 25.875Z" fill="white"/>
</svg>
