<svg width="26" height="19" viewBox="0 0 26 19" fill="none" xmlns="http://www.w3.org/2000/svg">
<path d="M25.9225 5.4771C25.764 4.77445 24.6969 4.44165 23.4976 4.71634C23.2388 4.77974 22.9957 4.86428 22.7739 4.96466L23.318 6.33295C23.3497 6.35935 23.3814 6.38051 23.4131 6.40692C23.7037 6.63937 23.9573 6.89823 24.1738 7.18879C25.3361 6.88766 26.081 6.15863 25.9225 5.4771Z" fill="white"/>
<path d="M2.51345 6.41752C2.54515 6.39108 2.57685 6.36467 2.60854 6.34355L3.16854 4.93825C2.96253 4.84316 2.74062 4.76922 2.50291 4.71638C1.28253 4.43639 0.241761 4.76394 0.0779882 5.47713C-0.080496 6.14809 0.643275 6.86657 1.76856 7.17828C1.97986 6.89826 2.22818 6.64469 2.51345 6.41752Z" fill="white"/>
<path d="M2.61383 15.4145V17.7443C2.61383 18.262 3.03121 18.6794 3.54894 18.6794H6.12176C6.6342 18.6794 7.05158 18.262 7.05158 17.7443V15.7156H3.79197C3.37459 15.7156 2.97307 15.61 2.61383 15.4145Z" fill="white"/>
<path d="M18.8802 15.7156V17.7443C18.8802 18.262 19.2976 18.6794 19.8206 18.6794H22.3881C22.9006 18.6794 23.3233 18.262 23.3233 17.7443V15.4145C22.964 15.61 22.5519 15.7156 22.1399 15.7156H18.8802Z" fill="white"/>
<path d="M23.0795 6.81914C23.0094 6.76239 22.9387 6.70977 22.8835 6.67314L20.7765 1.40095C20.5144 0.744704 19.8875 0.320618 19.1792 0.320618H6.74808C6.03972 0.320618 5.41288 0.744704 5.15079 1.40095L3.04171 6.6783C2.97361 6.72679 2.90654 6.77787 2.84257 6.82895C1.6802 7.75812 1.19885 9.20115 1.37116 11.2416C1.45062 12.1826 1.66576 13.1082 2.01091 13.993C2.1502 14.3557 2.40042 14.6591 2.7301 14.8685C3.04532 15.077 3.41163 15.1868 3.7898 15.1868H22.1375C22.5136 15.1868 22.8917 15.0739 23.2013 14.8696C23.5284 14.656 23.7755 14.3531 23.9158 13.994C24.262 13.1067 24.4772 12.1806 24.5561 11.2416C24.7284 9.19857 24.2455 7.75193 23.0795 6.81914ZM5.78902 5.4103L7.0675 2.19873C7.14411 2.00377 7.32956 1.87911 7.54086 1.87911H18.3869C18.5982 1.87911 18.7837 2.00432 18.8597 2.19766L20.1387 5.41081C20.2032 5.56981 20.1852 5.74048 20.0912 5.88046C19.9951 6.02363 19.8397 6.10553 19.6654 6.10553H6.26238C6.09122 6.10553 5.93799 6.02418 5.84184 5.88259C5.74568 5.741 5.72669 5.56878 5.78902 5.4103ZM6.74344 11.6157H4.33387C3.6682 11.6157 3.12407 11.0716 3.12407 10.4059V9.85652C3.12407 9.61878 3.31425 9.4286 3.55251 9.4286H5.41159C5.89765 9.4286 6.33612 9.62407 6.65841 9.94104C6.97538 10.2633 7.17085 10.7018 7.17085 11.1878C7.17085 11.4256 6.98066 11.6157 6.74344 11.6157ZM17.4565 10.0123L16.7185 12.0082C16.6672 12.1525 16.5156 12.2465 16.3418 12.2465H9.58745C9.41365 12.2465 9.26203 12.1525 9.21131 12.0082L8.47274 10.0123C8.39296 9.79255 8.58156 9.56697 8.84942 9.56697H17.0804C17.3477 9.56697 17.5363 9.79255 17.4565 10.0123ZM23.2207 10.4059C23.2207 10.5724 23.1866 10.7312 23.1252 10.8758C22.941 11.3097 22.5101 11.6157 22.0109 11.6157H19.6018C19.3641 11.6157 19.1739 11.4256 19.1739 11.1878C19.1739 10.7018 19.3694 10.2633 19.6916 9.94104C20.0086 9.62407 20.4471 9.4286 20.9331 9.4286H22.7927C23.0358 9.4286 23.2207 9.61878 23.2207 9.85652V10.4059Z" fill="white"/>
</svg>
