<svg width="28" height="29" viewBox="0 0 28 29" fill="none" xmlns="http://www.w3.org/2000/svg">
<g clip-path="url(#clip0_4004_850)">
<path d="M7.35711 12.6936C6.00327 11.3397 5.87754 9.21576 6.97976 7.71875H3.18786C1.95154 7.71875 0.945679 8.72461 0.945679 9.96093V26.2577C0.945679 27.4941 1.95154 28.4999 3.18786 28.4999H11.2816C12.5179 28.4999 13.5238 27.4941 13.5238 26.2577V17.4684C12.576 17.4202 11.6918 17.0283 11.0159 16.3524L7.35711 12.6936ZM10.0608 24.3984C10.0608 24.8514 9.69357 25.2187 9.24054 25.2187C8.78751 25.2187 8.42023 24.8514 8.42023 24.3984V21.9374H6.04921V24.3984C6.04921 24.8514 5.68193 25.2187 5.2289 25.2187C4.77587 25.2187 4.40859 24.8514 4.40859 24.3984V17.8359C4.40859 17.3829 4.77587 17.0156 5.2289 17.0156C5.68193 17.0156 6.04921 17.3829 6.04921 17.8359V20.2968H8.42023V17.8359C8.42023 17.3829 8.78751 17.0156 9.24054 17.0156C9.69357 17.0156 10.0608 17.3829 10.0608 17.8359V24.3984Z" fill="white"/>
<path d="M27.0452 21.9586L26.5786 19.3855L24.7622 18.4834L24.3552 17.1621L23.0339 16.7551L22.6268 15.4338L21.3055 15.0267L20.8985 13.7054L18.8939 11.7009C18.9258 11.6273 18.9553 11.5529 18.9838 11.4782L19.6426 10.8193C20.4969 9.96505 20.4969 8.57998 19.6426 7.72571L15.9838 4.06697C15.4017 3.48482 14.5732 3.29976 13.834 3.51102C14.3294 4.37896 14.6128 5.3828 14.6128 6.45172C14.6128 7.38971 14.3887 8.32443 13.9648 9.15475C13.8198 9.43874 13.5319 9.6022 13.2335 9.60225C13.108 9.60225 12.9806 9.57338 12.8611 9.51235C12.4577 9.30634 12.2975 8.81224 12.5035 8.40876C12.8144 7.79976 12.9721 7.14132 12.9721 6.45177C12.9721 5.73739 12.7964 5.06359 12.4875 4.46974L8.51717 8.44009C7.6629 9.29436 7.6629 10.6794 8.51717 11.5337L12.176 15.1925C13.0302 16.0468 14.4153 16.0468 15.2696 15.1925L15.9284 14.5336C16.0032 14.5052 16.0776 14.4757 16.1512 14.4438L23.8358 22.1284L26.4096 22.5945C26.7853 22.6624 27.1134 22.3343 27.0452 21.9586Z" fill="white"/>
<path d="M13.8341 3.51098C12.8085 1.71406 10.874 0.5 8.66113 0.5C5.49489 0.5 2.8986 2.98527 2.7196 6.10744C2.87322 6.08884 3.0293 6.07818 3.18784 6.07818H4.36723C4.55732 3.87542 6.40986 2.14062 8.66113 2.14062C10.3238 2.14062 11.7687 3.08743 12.4876 4.46966L12.8903 4.06694C13.1624 3.79481 13.4885 3.60975 13.8341 3.51098Z" fill="white"/>
</g>
<defs>
<clipPath id="clip0_4004_850">
<rect width="28" height="28" fill="white" transform="translate(0 0.5)"/>
</clipPath>
</defs>
</svg>
