<svg width="28" height="19" viewBox="0 0 28 19" fill="none" xmlns="http://www.w3.org/2000/svg">
<path d="M25.9452 0.0292358H2.05489C0.921814 0.0292358 0 0.95105 0 2.08412V16.9159C0 18.049 0.921814 18.9708 2.05489 18.9708H25.9451C27.0782 18.9708 28 18.049 28 16.9159V2.08412C28.0001 0.95105 27.0782 0.0292358 25.9452 0.0292358ZM8.61308 12.3623H11.3887C11.7218 12.3623 11.9917 12.6323 11.9917 12.9653C11.9917 13.2983 11.7217 13.5682 11.3887 13.5682H8.61308C8.28003 13.5682 8.01015 13.2983 8.01015 12.9653C8.01015 12.6323 8.28009 12.3623 8.61308 12.3623ZM2.60751 6.31459C2.60751 5.98154 2.87744 5.71166 3.21044 5.71166H6.82244C7.15549 5.71166 7.42537 5.9816 7.42537 6.31459V8.92609C7.42537 9.25914 7.15544 9.52902 6.82244 9.52902H3.21044C2.87739 9.52902 2.60751 9.25908 2.60751 8.92609V6.31459ZM3.21044 12.3623H5.98611C6.31915 12.3623 6.58904 12.6323 6.58904 12.9653C6.58904 13.2983 6.3191 13.5682 5.98611 13.5682H3.21044C2.87739 13.5682 2.60751 13.2983 2.60751 12.9653C2.60751 12.6323 2.8775 12.3623 3.21044 12.3623ZM13.1196 16.2494H3.21044C2.87739 16.2494 2.60751 15.9794 2.60751 15.6464C2.60751 15.3134 2.87744 15.0435 3.21044 15.0435H13.1196C13.4526 15.0435 13.7225 15.3134 13.7225 15.6464C13.7225 15.9794 13.4526 16.2494 13.1196 16.2494ZM16.7914 13.5682H14.0157C13.6827 13.5682 13.4128 13.2983 13.4128 12.9653C13.4128 12.6323 13.6827 12.3623 14.0157 12.3623H16.7914C17.1244 12.3623 17.3943 12.6323 17.3943 12.9653C17.3943 13.2983 17.1244 13.5682 16.7914 13.5682ZM22.194 13.5682H19.4184C19.0853 13.5682 18.8154 13.2983 18.8154 12.9653C18.8154 12.6323 19.0854 12.3623 19.4184 12.3623H22.194C22.5271 12.3623 22.797 12.6323 22.797 12.9653C22.797 13.2983 22.527 13.5682 22.194 13.5682ZM24.7896 4.76042H18.243C17.91 4.76042 17.6401 4.49049 17.6401 4.15749C17.6401 3.8245 17.91 3.55456 18.243 3.55456H24.7896C25.1227 3.55456 25.3926 3.8245 25.3926 4.15749C25.3926 4.49049 25.1226 4.76042 24.7896 4.76042Z" fill="white"/>
</svg>
