<svg width="24" height="21" viewBox="0 0 24 21" fill="none" xmlns="http://www.w3.org/2000/svg">
<path d="M21.7767 2.21665C20.7442 1.18235 19.3906 0.529983 17.9383 0.366732C16.486 0.20348 15.0214 0.539053 13.785 1.31832L16.375 3.95499C16.4785 4.06949 16.5582 4.20338 16.6096 4.34892C16.6609 4.49445 16.6829 4.64872 16.6742 4.8028C16.6656 4.95689 16.6264 5.10772 16.559 5.24656C16.4916 5.3854 16.3974 5.50949 16.2817 5.61165C16.066 5.8019 15.7876 5.90577 15.5 5.90332C15.3353 5.90457 15.1721 5.87091 15.0213 5.80455C14.8705 5.73819 14.7354 5.64064 14.625 5.51832L11.335 2.21665C10.8632 1.7453 10.3199 1.35154 9.72503 1.04999C8.51141 0.428257 7.13225 0.20629 5.78485 0.41584C4.43745 0.625389 3.19083 1.25572 2.22336 2.21665C1.01271 3.62584 0.347046 5.42217 0.347046 7.27998C0.347046 9.1378 1.01271 10.9341 2.22336 12.3433C4.39336 14.6767 9.66669 20.0783 12.035 20.0783C13.8784 20.0783 17.495 16.8 20.0034 14.245C20.6334 13.615 21.17 13.0783 21.6367 12.5533L21.8117 12.3667C23.0237 10.9517 23.687 9.14826 23.6806 7.28515C23.6741 5.42203 22.9985 3.62325 21.7767 2.21665ZM14.3334 12.25H13.1667V13.4167C13.1667 13.7261 13.0438 14.0228 12.825 14.2416C12.6062 14.4604 12.3094 14.5833 12 14.5833C11.6906 14.5833 11.3939 14.4604 11.1751 14.2416C10.9563 14.0228 10.8334 13.7261 10.8334 13.4167V12.25H9.66669C9.35727 12.25 9.06053 12.1271 8.84173 11.9083C8.62294 11.6895 8.50002 11.3927 8.50002 11.0833C8.50002 10.7739 8.62294 10.4772 8.84173 10.2584C9.06053 10.0396 9.35727 9.91665 9.66669 9.91665H10.8334V8.74999C10.8334 8.44057 10.9563 8.14382 11.1751 7.92503C11.3939 7.70623 11.6906 7.58332 12 7.58332C12.3094 7.58332 12.6062 7.70623 12.825 7.92503C13.0438 8.14382 13.1667 8.44057 13.1667 8.74999V9.91665H14.3334C14.6428 9.91665 14.9395 10.0396 15.1583 10.2584C15.3771 10.4772 15.5 10.7739 15.5 11.0833C15.5 11.3927 15.3771 11.6895 15.1583 11.9083C14.9395 12.1271 14.6428 12.25 14.3334 12.25Z" fill="white"/>
</svg>
