<svg width="28" height="29" viewBox="0 0 28 29" fill="none" xmlns="http://www.w3.org/2000/svg">
<path d="M2.32721 14.5312C2.06922 14.6262 1.93624 14.9122 2.03022 15.1712L2.34423 16.0351L4.73509 13.6442L2.32721 14.5312Z" fill="white"/>
<path d="M4.59009 22.2108L6.03004 26.1707C6.07503 26.2957 6.16902 26.3977 6.28901 26.4527C6.35599 26.4836 6.42799 26.4997 6.49999 26.4997C6.559 26.4997 6.61698 26.4897 6.673 26.4687L8.26196 25.8827L4.59009 22.2108Z" fill="white"/>
<path d="M25.9694 18.83L24.3214 14.2992L20.3666 18.254L22.3265 17.532C22.5835 17.434 22.8735 17.568 22.9685 17.8281C23.0645 18.087 22.9315 18.375 22.6725 18.47L20.1826 19.388C20.1256 19.409 20.0676 19.419 20.0096 19.419C19.8065 19.419 19.6146 19.294 19.5406 19.092C19.5396 19.089 19.5406 19.086 19.5396 19.083L15.3488 23.2738L25.6724 19.47C25.9313 19.375 26.0643 19.089 25.9694 18.83Z" fill="white"/>
<path d="M25.8533 10.6462L17.8536 2.64649C17.6586 2.4515 17.3416 2.4515 17.1466 2.64649L2.14716 17.6459C1.95217 17.8409 1.95217 18.1579 2.14716 18.3529L10.1469 26.3527C10.2439 26.4507 10.3719 26.4997 10.4999 26.4997C10.6279 26.4997 10.7559 26.4507 10.8539 26.3536L25.8533 11.3542C26.0483 11.1582 26.0483 10.8422 25.8533 10.6462ZM7.85399 16.354L5.85404 18.3539C5.75603 18.4509 5.62807 18.4999 5.50005 18.4999C5.37204 18.4999 5.24408 18.4509 5.14607 18.3539C4.95107 18.1589 4.95107 17.8419 5.14607 17.6469L7.14601 15.647C7.341 15.452 7.65801 15.452 7.853 15.647C8.04799 15.842 8.04898 16.158 7.85399 16.354ZM16.4887 16.989C16.1347 17.343 15.6537 17.513 15.1187 17.513C14.2347 17.513 13.2018 17.05 12.3378 16.185C11.7058 15.553 11.2618 14.797 11.0889 14.0571C10.8969 13.2321 11.0549 12.5142 11.5338 12.0342C12.0128 11.5542 12.7308 11.3962 13.5567 11.5892C14.2967 11.7622 15.0527 12.2052 15.6846 12.8382C17.0736 14.2261 17.4276 16.05 16.4887 16.989ZM22.8534 11.3542L20.8535 13.3541C20.7555 13.4511 20.6275 13.5001 20.4995 13.5001C20.3715 13.5001 20.2435 13.4512 20.1455 13.3541C19.9505 13.1591 19.9505 12.8421 20.1455 12.6471L22.1455 10.6472C22.3405 10.4522 22.6575 10.4522 22.8525 10.6472C23.0475 10.8422 23.0484 11.1582 22.8534 11.3542Z" fill="white"/>
</svg>
