<svg width="30" height="30" viewBox="0 0 30 30" fill="none" xmlns="http://www.w3.org/2000/svg">
<path fill-rule="evenodd" clip-rule="evenodd" d="M10 12.9999H12V14.9998V17.9998H18V14.9998V12.9999H20H22.0466L15 5.95324L7.95342 12.9999H10ZM10 18.7498V16.9999V14.9998H8H6.14276C5.02914 14.9998 4.47142 13.6534 5.25889 12.866L14.1161 4.0087C14.6042 3.52054 15.3958 3.52054 15.8839 4.0087L24.7411 12.866C25.5286 13.6534 24.9709 14.9998 23.8573 14.9998H22H20V16.9999V18.7498C20 19.4402 19.4404 19.9998 18.75 19.9998H11.25C10.5597 19.9998 10 19.4402 10 18.7498ZM2.5 23.7498V19.9998H4.375V23.7498C4.375 24.095 4.65482 24.3748 5 24.3748H25C25.3451 24.3748 25.625 24.095 25.625 23.7498V19.9998H27.5V23.7498C27.5 25.1305 26.3808 26.2498 25 26.2498H5C3.61929 26.2498 2.5 25.1305 2.5 23.7498Z" fill="url(#paint0_radial_4006_476)"/>
<defs>
<radialGradient id="paint0_radial_4006_476" cx="0" cy="0" r="1" gradientTransform="matrix(1.08288 16.7792 -18.5551 0.979237 21.4043 8.58618)" gradientUnits="userSpaceOnUse">
<stop stop-color="#CF06F2"/>
<stop offset="0.05" stop-color="#C705EF"/>
<stop offset="0.5" stop-color="#8D02DC"/>
<stop offset="0.83" stop-color="#6900D0"/>
<stop offset="1" stop-color="#5C00CC"/>
</radialGradient>
</defs>
</svg>
