<svg width="80" height="79" viewBox="0 0 80 79" fill="none" xmlns="http://www.w3.org/2000/svg">
<circle cx="40" cy="39.5" r="39.5" fill="url(#paint0_radial_4006_296)"/>
<path d="M45.7662 22.1196H35.2329C34.1154 22.1196 33.0437 22.5635 32.2536 23.3537C31.4634 24.1438 31.0195 25.2155 31.0195 26.333V28.4396H35.2329V26.333H45.7662V28.4396H49.9795V26.333C49.9795 25.2155 49.5356 24.1438 48.7455 23.3537C47.9553 22.5635 46.8836 22.1196 45.7662 22.1196Z" fill="white"/>
<path d="M37.389 40.2896V39.5846C37.389 39.3261 37.4983 39.0781 37.6927 38.8952C37.8872 38.7124 38.1509 38.6096 38.4259 38.6096H42.5734C42.8484 38.6096 43.1121 38.7124 43.3066 38.8952C43.5011 39.0781 43.6103 39.3261 43.6103 39.5846V40.2896L57.0897 35.2195V34.7096C57.0897 33.6752 56.6527 32.6833 55.8749 31.9519C55.0971 31.2205 54.0422 30.8096 52.9422 30.8096H28.0572C26.9572 30.8096 25.9022 31.2205 25.1244 31.9519C24.3466 32.6833 23.9097 33.6752 23.9097 34.7096V35.2195L37.389 40.2896Z" fill="white"/>
<path d="M43.6103 42.5836V44.8104C43.6103 45.0886 43.5011 45.3554 43.3066 45.5521C43.1121 45.7488 42.8484 45.8593 42.5734 45.8593H38.4259C38.1509 45.8593 37.8872 45.7488 37.6927 45.5521C37.4983 45.3554 37.389 45.0886 37.389 44.8104V42.5836L23.9097 37.1294V51.1038C23.9097 52.2166 24.3466 53.2837 25.1244 54.0705C25.9022 54.8574 26.9572 55.2994 28.0572 55.2994H52.9422C54.0422 55.2994 55.0971 54.8574 55.8749 54.0705C56.6527 53.2837 57.0897 52.2166 57.0897 51.1038V37.1294L43.6103 42.5836Z" fill="white"/>
<path d="M41.2895 42.3246V42.3225V41.0796H39.7095V42.3225V42.3246V44.2396H41.2895V42.3246Z" fill="white"/>
<defs>
<radialGradient id="paint0_radial_4006_296" cx="0" cy="0" r="1" gradientUnits="userSpaceOnUse" gradientTransform="translate(60.2376 17.2752) rotate(86.66) scale(58.7339)">
<stop stop-color="#CF06F2"/>
<stop offset="0.05" stop-color="#C705EF"/>
<stop offset="0.5" stop-color="#8D02DC"/>
<stop offset="0.83" stop-color="#6900D0"/>
<stop offset="1" stop-color="#5C00CC"/>
</radialGradient>
</defs>
</svg>
